<?xml version="1.0" encoding="UTF-8"?>
<svg width="100%" height="100%" viewBox="0 0 255 256" version="1.1" xmlns="http://www.w3.org/2000/svg" xmlns:xlink="http://www.w3.org/1999/xlink">
    <!-- Generator: Sketch 42 (36781) - http://www.bohemiancoding.com/sketch -->
    <title>instagram</title>
    <desc>Created with Sketch.</desc>
    <defs></defs>
    <g id="Page-1" stroke="none" stroke-width="1" fill="none" fill-rule="evenodd">
        <g id="instagram" fill-rule="nonzero">
            <path d="M127.089344,0 C74.0484885,0 58.5360611,0.0551384615 55.5207328,0.3072 C44.6358473,1.21895385 37.8625954,2.94596923 30.483542,6.64812308 C24.7968244,9.49366154 20.3119389,12.7921231 15.8856794,17.4158769 C7.82461069,25.8481231 2.9391145,36.2220308 1.17056489,48.5533538 C0.310717557,54.5398154 0.0605801527,55.7607385 0.00977099237,86.3389538 C-0.00977099237,96.5316923 0.00977099237,109.946092 0.00977099237,127.938954 C0.00977099237,181.344492 0.0683969466,196.960492 0.322442748,199.993108 C1.20183206,210.666338 2.86290076,217.381415 6.38045802,224.726646 C13.1029008,238.786954 25.9419847,249.342031 41.0674809,253.280492 C46.3047328,254.639262 52.0891603,255.387569 59.5151145,255.742031 C62.661374,255.879877 94.729771,255.978338 126.81771,255.978338 C158.905649,255.978338 190.993588,255.938954 194.061679,255.781415 C202.660153,255.373785 207.65313,254.698338 213.17374,253.2608 C228.396947,249.302646 241.001527,238.905108 247.860763,224.647877 C251.309924,217.479877 253.058931,210.5088 253.850382,200.392862 C254.022351,198.187323 254.094656,163.022769 254.094656,127.905477 C254.094656,92.7822769 254.016489,57.6827077 253.844519,55.4771692 C253.043298,45.1977846 251.29429,38.2857846 247.73374,30.9799385 C244.812214,24.9993846 241.568244,20.5331692 236.858626,15.9665231 C228.453618,7.87692308 218.174534,2.95384615 205.925618,1.17366154 C199.990718,0.309169231 198.808427,0.0531692308 168.440183,0 L127.089344,0 Z" id="Shape" fill="#D1D3D4"></path>
            <path d="M127.089344,0 C74.0484885,0 58.5360611,0.0551384615 55.5207328,0.3072 C44.6358473,1.21895385 37.8625954,2.94596923 30.483542,6.64812308 C24.7968244,9.49366154 20.3119389,12.7921231 15.8856794,17.4158769 C7.82461069,25.8481231 2.9391145,36.2220308 1.17056489,48.5533538 C0.310717557,54.5398154 0.0605801527,55.7607385 0.00977099237,86.3389538 C-0.00977099237,96.5316923 0.00977099237,109.946092 0.00977099237,127.938954 C0.00977099237,181.344492 0.0683969466,196.960492 0.322442748,199.993108 C1.20183206,210.666338 2.86290076,217.381415 6.38045802,224.726646 C13.1029008,238.786954 25.9419847,249.342031 41.0674809,253.280492 C46.3047328,254.639262 52.0891603,255.387569 59.5151145,255.742031 C62.661374,255.879877 94.729771,255.978338 126.81771,255.978338 C158.905649,255.978338 190.993588,255.938954 194.061679,255.781415 C202.660153,255.373785 207.65313,254.698338 213.17374,253.2608 C228.396947,249.302646 241.001527,238.905108 247.860763,224.647877 C251.309924,217.479877 253.058931,210.5088 253.850382,200.392862 C254.022351,198.187323 254.094656,163.022769 254.094656,127.905477 C254.094656,92.7822769 254.016489,57.6827077 253.844519,55.4771692 C253.043298,45.1977846 251.29429,38.2857846 247.73374,30.9799385 C244.812214,24.9993846 241.568244,20.5331692 236.858626,15.9665231 C228.453618,7.87692308 218.174534,2.95384615 205.925618,1.17366154 C199.990718,0.309169231 198.808427,0.0531692308 168.440183,0 L127.089344,0 Z" id="Shape" fill="#D1D3D4"></path>
            <path d="M127.030718,33.4769231 C101.555786,33.4769231 98.3587176,33.5891692 88.3532214,34.048 C78.3672672,34.5088 71.5510229,36.1019077 65.5868092,38.4393846 C59.4174046,40.8536615 54.1840611,44.0832 48.9702595,49.3390769 C43.7525496,54.5929846 40.5476641,59.8665846 38.144,66.0814769 C35.8185038,72.0935385 34.2356031,78.9641846 33.7861374,89.0230154 C33.338626,99.1054769 33.221374,102.329108 33.221374,128 C33.221374,153.670892 33.3347176,156.882708 33.7880916,166.965169 C34.2473282,177.027938 35.8282748,183.896615 38.1459542,189.906708 C40.5437557,196.123569 43.7486412,201.397169 48.9643969,206.651077 C54.1762443,211.908923 59.4095878,215.146338 65.575084,217.560615 C71.5432061,219.898092 78.3614046,221.4912 88.3454046,221.952 C98.3509008,222.410831 101.546015,222.523077 127.018992,222.523077 C152.495878,222.523077 155.683176,222.410831 165.688672,221.952 C175.674626,221.4912 182.498687,219.898092 188.466809,217.560615 C194.63426,215.146338 199.859786,211.908923 205.071634,206.651077 C210.289344,201.397169 213.494229,196.123569 215.897893,189.908677 C218.203847,183.896615 219.786748,177.025969 220.255756,166.967138 C220.705221,156.884677 220.822473,153.670892 220.822473,128 C220.822473,102.329108 220.705221,99.1074462 220.255756,89.0249846 C219.786748,78.9622154 218.203847,72.0935385 215.897893,66.0834462 C213.494229,59.8665846 210.289344,54.5929846 205.071634,49.3390769 C199.853924,44.0812308 194.636214,40.8516923 188.460947,38.4393846 C182.481099,36.1019077 175.660947,34.5088 165.674992,34.048 C155.669496,33.5891692 152.484153,33.4769231 127.001405,33.4769231 L127.030718,33.4769231 Z M118.615939,50.5107692 C121.113405,50.5068308 123.900092,50.5107692 127.030718,50.5107692 C152.075725,50.5107692 155.044153,50.6013538 164.934351,51.0542769 C174.08,51.4756923 179.043664,53.0156308 182.350168,54.3094154 C186.727573,56.0226462 189.848427,58.0706462 193.129527,61.3789538 C196.41258,64.6872615 198.444947,67.8380308 200.149008,72.2491077 C201.432916,75.5771077 202.963053,80.5789538 203.379298,89.7949538 C203.828763,99.7592615 203.926473,102.752492 203.926473,127.978338 C203.926473,153.204185 203.828763,156.197415 203.379298,166.161723 C202.961099,175.377723 201.432916,180.379569 200.149008,183.707569 C198.448855,188.118646 196.41258,191.259569 193.129527,194.565908 C189.846473,197.874215 186.729527,199.922215 182.350168,201.635446 C179.047573,202.935138 174.08,204.471138 164.934351,204.892554 C155.046107,205.345477 152.075725,205.443938 127.030718,205.443938 C101.983756,205.443938 99.0153282,205.345477 89.127084,204.892554 C79.9814351,204.4672 75.017771,202.927262 71.709313,201.633477 C67.3319084,199.920246 64.2051908,197.872246 60.9221374,194.563938 C57.639084,191.255631 55.6067176,188.112738 53.9026565,183.699692 C52.6187481,180.371692 51.0886107,175.369846 50.6723664,166.153846 C50.2229008,156.189538 50.1330076,153.196308 50.1330076,127.954708 C50.1330076,102.713108 50.2229008,99.7356308 50.6723664,89.7713231 C51.0905649,80.5553231 52.6187481,75.5534769 53.9026565,72.2215385 C55.6028092,67.8104615 57.639084,64.6596923 60.9221374,61.3513846 C64.2051908,58.0430769 67.3319084,55.9950769 71.709313,54.2779077 C75.0158168,52.9782154 79.9814351,51.4422154 89.127084,51.0188308 C97.7802748,50.6249846 101.133679,50.5068308 118.615939,50.4871385 L118.615939,50.5107692 Z M177.101191,66.2055385 C170.88684,66.2055385 165.845008,71.2802462 165.845008,77.5443692 C165.845008,83.8065231 170.88684,88.8871385 177.101191,88.8871385 C183.315542,88.8871385 188.357374,83.8065231 188.357374,77.5443692 C188.357374,71.2822154 183.315542,66.2016 177.101191,66.2016 L177.101191,66.2055385 Z M127.030718,79.4584615 C100.428214,79.4584615 78.8597252,101.192862 78.8597252,128 C78.8597252,154.807138 100.428214,176.531692 127.030718,176.531692 C153.633221,176.531692 175.193893,154.807138 175.193893,128 C175.193893,101.192862 153.631267,79.4584615 127.028763,79.4584615 L127.030718,79.4584615 Z M127.030718,96.4923077 C144.298015,96.4923077 158.297893,110.597908 158.297893,128 C158.297893,145.400123 144.298015,159.507692 127.030718,159.507692 C109.761466,159.507692 95.763542,145.400123 95.763542,128 C95.763542,110.597908 109.761466,96.4923077 127.030718,96.4923077 L127.030718,96.4923077 Z" id="Shape" fill="#FFFFFF"></path>
        </g>
    </g>
</svg>
