<?xml version="1.0" encoding="utf-8"?>
<!-- Generator: Adobe Illustrator 21.0.2, SVG Export Plug-In . SVG Version: 6.00 Build 0)  -->
<svg version="1.1" id="Layer_1" xmlns="http://www.w3.org/2000/svg" xmlns:xlink="http://www.w3.org/1999/xlink" x="0px" y="0px" viewBox="0 0 314 109.2" width="100%" height="100%" xml:space="preserve">
	<style type="text/css">
		.st0 {
			fill: none;
			stroke: #f1f1f1;
			stroke-width: 4.0418;
			stroke-miterlimit: 10;
		}
		.st1 {
			fill: #f1f1f1;
		}

	</style>
	<g>
		<path class="st0" d="M327.9,118.9"/>
	</g>
	<g>
		<g>
			<path
				class="st1"
				d="M47.4,45.9c0-1-0.5-1.5-1.6-1.5h-7.5c-1,0-1.6,0.5-1.6,1.5v17c0,1,0.5,1.5,1.6,1.5h7.5c1,0,1.6-0.5,1.6-1.5
			v-4.7h-6v-5.7H54v11.6c0,3.7-2.6,6.2-6.5,6.2H36.7c-3.8,0-6.5-2.5-6.5-6.2V44.7c0-3.7,2.6-6.2,6.5-6.2h10.8c3.8,0,6.5,2.5,6.5,6.2
			v4.1h-6.6V45.9z"/>
			<path class="st1" d="M87.9,64.1c0,3.7-2.6,6.2-6.5,6.2H70.9c-3.8,0-6.5-2.5-6.5-6.2V38.6H71v24.3c0,1,0.5,1.5,1.6,1.5h7.2
			c1,0,1.6-0.5,1.6-1.5V38.6h6.6V64.1z"/>
			<path
				class="st1"
				d="M114.5,45.9c0-1-0.5-1.5-1.6-1.5h-6.6c-1,0-1.6,0.5-1.6,1.5v3c0,1,0.5,1.3,1.6,1.5l8.5,1.8
			c3.6,0.7,6.6,2.8,6.6,6.3v5.7c0,3.7-2.6,6.2-6.5,6.2h-10.2c-3.8,0-6.5-2.5-6.5-6.2v-4h6.4v2.8c0,1,0.5,1.5,1.6,1.5h7.1
			c1,0,1.6-0.5,1.6-1.5v-3.3c0-1-0.5-1.3-1.6-1.5l-8.5-1.8c-3.6-0.7-6.6-2.8-6.6-6.3v-5.4c0-3.7,2.6-6.2,6.5-6.2h9.7
			c3.8,0,6.5,2.5,6.5,6.2v3.7h-6.4V45.9z"/>
			<path class="st1" d="M144.5,44.5v25.7h-6.6V44.5h-8.6v-5.9h23.7v5.9H144.5z"/>
			<path class="st1" d="M163.3,70.2h-6.8l10.6-31.6h7.7l10.6,31.6h-7.1l-2.1-7.1h-10.6L163.3,70.2z M167.3,57.1h7l-3.5-11.6
			L167.3,57.1z"/>
			<path class="st1" d="M206,70.2h-7.7l-10-31.6h7.5l6.3,24l6.5-24h7.3L206,70.2z"/>
			<path
				class="st1"
				d="M241.2,38.4c3.8,0,6.5,2.5,6.5,6.2v19.5c0,3.7-2.6,6.2-6.5,6.2h-11c-3.8,0-6.5-2.5-6.5-6.2V44.7
			c0-3.7,2.6-6.2,6.5-6.2H241.2z M241.1,45.9c0-1-0.5-1.5-1.6-1.5h-7.7c-1,0-1.6,0.5-1.6,1.5v17c0,1,0.5,1.5,1.6,1.5h7.7
			c1,0,1.6-0.5,1.6-1.5V45.9z"/>
			<path
				class="st1"
				d="M274,45.9c0-1-0.5-1.5-1.6-1.5h-6.6c-1,0-1.6,0.5-1.6,1.5v3c0,1,0.5,1.3,1.6,1.5l8.5,1.8
			c3.6,0.7,6.6,2.8,6.6,6.3v5.7c0,3.7-2.6,6.2-6.5,6.2h-10.2c-3.8,0-6.5-2.5-6.5-6.2v-4h6.4v2.8c0,1,0.5,1.5,1.6,1.5h7.1
			c1,0,1.6-0.5,1.6-1.5v-3.3c0-1-0.5-1.3-1.6-1.5l-8.5-1.8c-3.6-0.7-6.6-2.8-6.6-6.3v-5.4c0-3.7,2.6-6.2,6.5-6.2h9.7
			c3.8,0,6.5,2.5,6.5,6.2v3.7H274V45.9z"/>
		</g>
		<g>
			<path
				class="st1"
				d="M279.9,13.5c1.8-0.8,3.7-1.4,5.5-1.9c1.8,0.1,3.7,0,5.5,0h11.1h1.8v1.8v10.3c0,1.7,0.1,3.4-0.1,5.2
			c-0.5,1.7-1.1,3.4-1.8,5.2c-0.7-1.7-1.2-3.4-1.8-5.2c-0.1-1.7,0-3.4-0.1-5.2V13.5l1.8,1.8H291c-1.8,0-3.7,0-5.5,0
			C283.6,14.9,281.8,14.3,279.9,13.5z"/>
		</g>
		<g>
			<path
				class="st1"
				d="M279.9,98.8c1.8-0.8,3.7-1.4,5.5-1.9c1.8,0.1,3.7,0,5.5,0h11.1l-1.8,1.8V88.5c0-1.7-0.1-3.4,0.1-5.2
			c0.5-1.7,1.1-3.4,1.8-5.2c0.7,1.7,1.2,3.4,1.8,5.2c0.1,1.7,0,3.4,0.1,5.2v10.3v1.8h-1.8H291c-1.8,0-3.7,0-5.5,0
			C283.6,100.2,281.8,99.6,279.9,98.8z"/>
		</g>
		<g>
			<path
				class="st1"
				d="M31.7,13.6c-1.8,0.8-3.7,1.4-5.5,1.9c-1.8-0.1-3.7,0-5.5,0H9.5l1.8-1.8V24c0,1.7,0.1,3.4-0.1,5.2
			c-0.5,1.7-1.1,3.4-1.8,5.2c-0.7-1.7-1.2-3.4-1.8-5.2c-0.1-1.7,0-3.4-0.1-5.2V13.6v-1.8h1.8h11.1c1.8,0,3.7,0,5.5,0
			C28,12.3,29.9,12.9,31.7,13.6z"/>
		</g>
		<g>
			<path
				class="st1"
				d="M31.7,98.9c-1.8,0.8-3.7,1.4-5.5,1.9c-1.8-0.1-3.7,0-5.5,0H9.5H7.7v-1.8V88.6c0-1.7-0.1-3.4,0.1-5.2
			c0.5-1.7,1.1-3.4,1.8-5.2c0.7,1.7,1.2,3.4,1.8,5.2c0.1,1.7,0,3.4,0.1,5.2v10.3l-1.8-1.8h11.1c1.8,0,3.7,0,5.5,0
			C28,97.6,29.9,98.2,31.7,98.9z"/>
		</g>
		<g>
			<path
				class="st1"
				d="M241.7,13.7c8.5-0.3,17-0.6,25.6-0.8l0.2,0l0.2,0.1l13.2,8.4l-0.7-0.2l14.2-0.4l1.5,0l0,1.6l0.2,6.6
			c0.1,2.2,0.1,4.4,0.1,6.6l-0.4-1.1c1.4,1.8,2.7,3.6,4,5.4l4,5.4l0.4,0.5v0.6V66v0.6l-0.4,0.5l-8,10.8l0.4-1.1V90v1.8h-1.8h-14.2
			l1-0.3l-12.9,8.8l-0.5,0.3l-0.6,0l-222.3,0.1l-0.6,0l-0.5-0.3l-12.9-8.8l1,0.3H17.8h-1.8v-1.8V76.9l0.4,1.1l-8-10.8l-0.4-0.5v-0.6
			V46.5v-0.6l0.4-0.5l4-5.4c1.3-1.8,2.6-3.6,4-5.4l-0.4,1.1l0.2-6.6l0.2-6.6l0-1.6l1.5,0l14.2,0.4l-0.7,0.2l13.2-8.4l0.2-0.1l0.2,0
			c8.5,0.2,17,0.5,25.6,0.8c-8.5,0.3-17,0.5-25.6,0.8l0.4-0.1l-12.7,9.1l-0.3,0.2l-0.4,0L17.8,24l1.5-1.5l0.2,6.6l0.2,6.6l0,0.6
			l-0.4,0.5c-1.3,1.8-2.7,3.6-4,5.4l-4,5.4l0.4-1.1v19.6L11.3,65l8,10.8l0.4,0.5v0.6v13.2l-1.8-1.8h14.2h0.6l0.5,0.3l12.9,8.8
			l-1-0.3L267.2,97l-1,0.3l12.9-8.8l0.5-0.3h0.6h14.2l-1.8,1.8V76.8v-0.6l0.4-0.5l8-10.8l-0.4,1.1V46.5l0.4,1.1l-4-5.4
			c-1.3-1.8-2.7-3.6-4-5.4l-0.4-0.5l0-0.6c0-2.2,0.1-4.4,0.1-6.6l0.2-6.6l1.6,1.6l-14.2-0.4l-0.4,0l-0.3-0.2l-12.7-9.1l0.4,0.1
			C258.7,14.2,250.2,13.9,241.7,13.7z"/>
		</g>
		<g>
			<path
				class="st1"
				d="M110.3,5.5c0-0.7-0.4-1.1-1.1-1.1h-5.5c-0.7,0-1.1,0.4-1.1,1.1v12.8c0,0.7,0.4,1.1,1.1,1.1h5.5
			c0.7,0,1.1-0.4,1.1-1.1v-3.5H106v-4.3h9.1v8.8c0,2.8-1.9,4.7-4.7,4.7h-7.8c-2.8,0-4.7-1.9-4.7-4.7V4.6c0-2.8,1.9-4.7,4.7-4.7h7.8
			c2.8,0,4.7,1.9,4.7,4.7v3.1h-4.8V5.5z"/>
			<path
				class="st1"
				d="M135.1-0.1c2.8,0,4.7,1.9,4.7,4.7v14.7c0,2.8-1.9,4.7-4.7,4.7h-8c-2.8,0-4.7-1.9-4.7-4.7V4.6
			c0-2.8,1.9-4.7,4.7-4.7H135.1z M135,5.5c0-0.7-0.4-1.1-1.1-1.1h-5.6c-0.7,0-1.1,0.4-1.1,1.1v12.8c0,0.7,0.4,1.1,1.1,1.1h5.6
			c0.7,0,1.1-0.4,1.1-1.1V5.5z"/>
			<path class="st1" d="M160.2,23.8l-3.8-8.8h-3.8v8.8h-4.8V0h12.1c2.8,0,4.7,1.9,4.7,4.7v5.6c0,2.2-1.3,3.9-3.2,4.5l4,9H160.2z
			 M159.8,5.6c0-0.7-0.4-1.1-1.1-1.1h-6.2v6h6.2c0.7,0,1.1-0.4,1.1-1.1V5.6z"/>
			<path class="st1" d="M184.9,0c2.8,0,4.7,1.9,4.7,4.7v14.4c0,2.8-1.9,4.7-4.7,4.7h-12.4V0H184.9z M183.7,19.3
			c0.7,0,1.1-0.4,1.1-1.1V5.6c0-0.7-0.4-1.1-1.1-1.1h-6.4v14.8H183.7z"/>
			<path
				class="st1"
				d="M209.7-0.1c2.8,0,4.7,1.9,4.7,4.7v14.7c0,2.8-1.9,4.7-4.7,4.7h-8c-2.8,0-4.7-1.9-4.7-4.7V4.6
			c0-2.8,1.9-4.7,4.7-4.7H209.7z M209.6,5.5c0-0.7-0.4-1.1-1.1-1.1h-5.6c-0.7,0-1.1,0.4-1.1,1.1v12.8c0,0.7,0.4,1.1,1.1,1.1h5.6
			c0.7,0,1.1-0.4,1.1-1.1V5.5z"/>
		</g>
		<g>
			<polygon class="st1" points="314,109.2 0,109.2 0,2.2 87.9,2.2 87.9,6.3 4.1,6.3 4.1,105.1 309.9,105.1 309.9,6.3 223.7,6.3
			223.7,2.2 314,2.2 		"/>
		</g>
	</g>
</svg>
