<?xml version="1.0" encoding="utf-8"?>
<!-- Generator: Adobe Illustrator 21.0.2, SVG Export Plug-In . SVG Version: 6.00 Build 0)  -->
<svg version="1.1" id="Layer_1" xmlns="http://www.w3.org/2000/svg" xmlns:xlink="http://www.w3.org/1999/xlink" x="0px" y="0px" width="100%" height="100%"
	 viewBox="0 0 144 144" style="enable-background:new 0 0 144 144;" xml:space="preserve">
<style type="text/css">
	.st0{fill:#A6A8AB;}
</style>
<g>
	<path class="st0" d="M81.4,76.4c0-5.3-4.3-9.5-9.5-9.5c-5.3,0-9.5,4.3-9.5,9.5c0,5.3,4.3,9.5,9.5,9.5
		C77.2,85.9,81.4,81.6,81.4,76.4z"/>
	<path class="st0" d="M71.9,0.6C32.7,0.6,0.8,32.4,0.8,71.7s31.8,71.1,71.1,71.1S143,110.9,143,71.7S111.2,0.6,71.9,0.6z M115.8,92
		c0,13-10.5,23.5-23.5,23.5H51.6c-13,0-23.5-10.5-23.5-23.5V51.4c0-13,10.5-23.5,23.5-23.5h40.7c13,0,23.5,10.5,23.5,23.5V92z"/>
	<path class="st0" d="M94,76.4c0,12.2-9.9,22.1-22.1,22.1s-22.1-9.9-22.1-22.1c0-4.1,1.1-7.9,3.1-11.1h-16V92
		c0,8.1,6.6,14.7,14.7,14.7h40.7c8.1,0,14.7-6.6,14.7-14.7V65.2h-16C92.9,68.5,94,72.3,94,76.4z"/>
	<path class="st0" d="M92.2,36.7H51.6c-8.1,0-14.7,6.6-14.7,14.7v5.1h25.7c2.8-1.3,6-2.1,9.4-2.1c3.3,0,6.5,0.8,9.4,2.1H107v-5.1
		C107,43.3,100.4,36.7,92.2,36.7z M95.9,53.4c-3.5,0-6.3-2.8-6.3-6.3c0-3.5,2.8-6.3,6.3-6.3s6.3,2.8,6.3,6.3
		C102.2,50.6,99.4,53.4,95.9,53.4z"/>
</g>
</svg>
