<?xml version="1.0" encoding="UTF-8"?>
<svg width="50px" height="20px" viewBox="0 0 20 20" enable-background="new 0 0 20 20" xml:space="preserve" version="1.1" xmlns="http://www.w3.org/2000/svg" xmlns:xlink="http://www.w3.org/1999/xlink">
  <!-- Generator: Sketch 42 (36781) - http://www.bohemiancoding.com/sketch -->
  <title>check</title>
  <desc>Created with Sketch.</desc>
  <defs></defs>
  <g id="Page-1" stroke="none" stroke-width="1" fill="none" fill-rule="evenodd">
    <g id="check" fill-rule="nonzero" fill="#26A964">
      <path
        d="M7.4161194,19.7954545 C6.99343284,19.7954545 6.5958209,19.6275758 6.29671642,19.3236364 L0.753134328,13.6942424 C0.453731343,13.3906061 0.288955224,12.9869697 0.288955224,12.5578788 C0.288955224,12.1287879 0.453731343,11.7248485 0.753134328,11.4215152 C1.0519403,11.1181818 1.44955224,10.9512121 1.87253731,10.9512121 C2.29552239,10.9512121 2.69343284,11.1181818 2.99283582,11.4218182 L7.17761194,15.6693939 L17.0567164,0.758787879 C17.3519403,0.313939394 17.8444776,0.0481818182 18.3737313,0.0481818182 C18.6883582,0.0481818182 18.9931343,0.142727273 19.2561194,0.321515152 C19.9797015,0.815757576 20.1725373,1.81666667 19.6856716,2.55212121 L8.73134328,19.0848485 C8.46507463,19.4836364 8.04119403,19.74 7.56865672,19.7860606 C7.51343284,19.7924242 7.46567164,19.7954545 7.4161194,19.7954545 Z"
        id="Shape"></path>
    </g>
  </g>
</svg>
