<?xml version="1.0" encoding="utf-8"?>
<!-- Generator: Adobe Illustrator 21.0.2, SVG Export Plug-In . SVG Version: 6.00 Build 0)  -->
<svg version="1.1" id="Layer_1" xmlns="http://www.w3.org/2000/svg" xmlns:xlink="http://www.w3.org/1999/xlink" x="0px" y="0px"
	 viewBox="0 0 360 360" style="enable-background:new 0 0 360 360;" xml:space="preserve">
<style type="text/css">
	.st0{fill:#FFFFFF;}
</style>
<g>
	<path class="st0" d="M146.7,121c1.1,0,2.3-0.2,3.3-0.6c1-0.4,24-10.3,19.4-29.3l-1.1-4.8l-1.6,4.6c-0.1,0.1-5.3,14.7-20.5,15.8
		c-1.3,0.1-2.6,0.6-3.5,1.5c-1.5,1.5-4.3,4.3-2.4,8.7C141.3,119.6,143.7,121,146.7,121z M144.8,110.3c0.4-0.4,1-0.6,1.6-0.7h0
		c11.2-0.8,17.6-8.1,20.7-13.2c-0.4,13.7-17.5,21-18.2,21.3c-1.4,0.6-4.7,0.9-5.9-1.9C141.9,113.5,143,112,144.8,110.3z"/>
	<path class="st0" d="M276.4,100.5c-0.8-0.4-1.5-0.3-2.2,0.1c-1.3,0.9-2.7,4.1-2.1,14.8c0.1,1.7,0.6,2.8,1.6,3.2
		c0.3,0.1,0.5,0.2,0.8,0.2c1,0,1.9-0.7,2.1-0.8l0.1-0.1l0.2-0.3C278.9,112.7,280.3,102.4,276.4,100.5z M274.9,116.4
		c-0.2,0.1-0.4,0.2-0.4,0.2c0,0-0.2-0.2-0.3-1.3c-0.4-7.2,0.3-12.2,1.1-12.9c0,0,0,0,0.1,0C277.2,103.3,277.2,110.9,274.9,116.4z"/>
	<path class="st0" d="M293.8,111.8c0.1,0,0.2,0,0.4,0c0.3-0.1,1.4-0.4,1.4-2.1c0-5.5-5.8-11.4-8.9-13c-0.7-0.3-1.6-0.7-2.4-0.2
		c-1.3,0.9-0.8,3.4,1.7,7.6C287.3,107,291.4,111.8,293.8,111.8z M285.9,98.6c0.7,0.4,1.7,1.2,2.9,2.3c2.9,2.8,4.6,6,4.6,8.6
		c-1.1-0.6-4.2-3.4-5.5-6.4l0-0.1C286.9,101.3,286.2,99.6,285.9,98.6z"/>
	<path class="st0" d="M72.9,308.7c-20.9-18.4-36.6-38.8-46.7-60.5c-9.8-21.1-14.8-44.3-14.8-69c0-45.3,17.6-87.9,49.7-120
		c32-32,74.6-49.7,120-49.7c26,0,50.9,5.7,74.1,17c0.8,0.4,1.6,0.4,2.4,0.1c0.8-0.3,1.4-0.8,1.8-1.6c0.8-1.6,0.1-3.5-1.5-4.2
		C233.9,9.2,208,3.2,181.1,3.2c-47,0-91.2,18.3-124.4,51.5S5.1,132.2,5.1,179.2c0,25.6,5.2,49.8,15.4,71.7
		c9.9,21.2,24.9,41.2,44.7,59.3l0.3,0.3h9.5L72.9,308.7z"/>
	<path class="st0" d="M291.7,42.4c-0.7-0.5-1.5-0.8-2.3-0.7c-0.8,0.1-1.6,0.5-2.1,1.2c-0.5,0.7-0.8,1.5-0.7,2.3
		c0.1,0.8,0.5,1.6,1.2,2.1c40,32.4,63,80.5,63,131.9c0,49-21.2,95.7-58.2,127.9c-0.7,0.6-1.1,1.4-1.1,2.3l0,1h6.8l0.3-0.3
		c37.2-33.4,58.5-81.1,58.5-131C357,125.8,333.2,76,291.7,42.4z"/>
	<polygon class="st0" points="35.7,323.1 35.2,323.5 34.8,324.4 34.8,330.6 35.2,331.5 35.6,332 36.5,332.5 43,332.5 43.2,332.7 
		43.2,337.7 43,337.9 37,337.9 37,337.2 34.8,337.2 34.8,340.1 43.6,340.1 44.4,339.7 44.9,339.3 45.3,338.4 45.4,332.2 45,331.2 
		44.5,330.8 43.7,330.3 37.2,330.3 37,330.1 37,325 37.2,324.9 43.2,324.9 43.2,325.6 45.4,325.6 45.4,322.6 36.6,322.6 	"/>
	<polygon class="st0" points="56,329.9 52.4,322.6 49.6,322.6 49.6,324.9 50.3,324.9 50.3,337.9 49.6,337.9 49.6,340.1 53.3,340.1 
		53.3,337.9 52.5,337.9 52.5,327.5 55.4,333.3 56.6,333.3 59.5,327.5 59.5,337.9 58.7,337.9 58.7,340.1 62.5,340.1 62.5,337.9 
		61.7,337.9 61.7,324.9 62.5,324.9 62.5,322.6 59.6,322.6 	"/>
	<path class="st0" d="M76.4,323.1l-0.9-0.4l-7,0l-0.9,0.4l-0.5,0.4l-0.4,0.9l0,13.9l0.4,0.9l0.4,0.5l0.9,0.4l7.1,0l0.8-0.4l0.5-0.4
		l0.4-0.9l0-13.9l-0.4-0.9L76.4,323.1z M75,337.7l-0.2,0.2H69l-0.2-0.2V325l0.2-0.2h5.8L75,325V337.7z"/>
	<polygon class="st0" points="89.1,324.9 89.6,324.9 84.4,335.3 84.4,324.9 85.2,324.9 85.2,322.6 81.4,322.6 81.4,324.9 
		82.2,324.9 82.2,337.9 81.4,337.9 81.4,340.1 84.3,340.1 87.5,333.7 89.6,337.9 89.1,337.9 89.1,340.1 92.8,340.1 92.8,337.9 
		91.9,337.9 88.7,331.4 91.9,324.9 92.8,324.9 92.8,322.6 89.1,322.6 	"/>
	<polygon class="st0" points="97,324.9 97.8,324.9 97.8,337.9 97,337.9 97,340.1 107.6,340.1 107.6,337.2 105.4,337.2 105.4,337.9 
		100,337.9 100,332.5 105.3,332.5 105.3,330.3 100,330.3 100,324.9 105.4,324.9 105.4,325.6 107.6,325.6 107.6,322.6 97,322.6 	"/>
	<path class="st0" d="M121.6,323.1l-0.9-0.4l-8.9,0v2.2h0.8v13.1h-0.8v2.2h8.8l0.8-0.4l0.5-0.4l0.4-0.9l0-13.9l-0.4-0.9L121.6,323.1
		z M120.2,337.7l-0.2,0.2h-5.2v-13.1h5.2l0.2,0.2V337.7z"/>
	<polygon class="st0" points="140.1,329.9 136.5,322.6 133.6,322.6 133.6,324.9 134.4,324.9 134.4,337.9 133.6,337.9 133.6,340.1 
		137.4,340.1 137.4,337.9 136.6,337.9 136.6,327.5 139.5,333.3 140.7,333.3 143.5,327.5 143.5,337.9 142.8,337.9 142.8,340.1 
		146.5,340.1 146.5,337.9 145.8,337.9 145.8,324.9 146.5,324.9 146.5,322.6 143.7,322.6 	"/>
	<polygon class="st0" points="150.7,324.9 151.5,324.9 151.5,337.9 150.7,337.9 150.7,340.1 161.3,340.1 161.3,337.2 159.1,337.2 
		159.1,337.9 153.7,337.9 153.7,332.5 159,332.5 159,330.3 153.7,330.3 153.7,324.9 159.1,324.9 159.1,325.6 161.3,325.6 
		161.3,322.6 150.7,322.6 	"/>
	<path class="st0" d="M176.1,324.5l-0.4-0.9l-0.4-0.5l-0.9-0.4l-6.3,0l-0.9,0.4l-0.5,0.4l-0.4,0.9l0,13.5h-0.8v2.2h3.7v-2.2h-0.8
		v-5.4h5.4v5.4h-0.8v2.2h3.7v-2.2h-0.8V324.5z M173.9,330.3h-5.4V325l0.2-0.2h5.1l0.2,0.2V330.3z"/>
	<polygon class="st0" points="181.1,325.6 183.3,325.6 183.3,324.9 185.3,324.9 185.3,337.9 184.5,337.9 184.5,340.1 188.3,340.1 
		188.3,337.9 187.5,337.9 187.5,324.9 189.5,324.9 189.5,325.6 191.7,325.6 191.7,322.6 181.1,322.6 	"/>
	<polygon class="st0" points="196.8,323.1 196.4,323.5 195.9,324.4 195.9,330.6 196.3,331.5 196.7,332 197.6,332.5 204.1,332.5 
		204.3,332.7 204.3,337.7 204.1,337.9 198.1,337.9 198.1,337.2 195.9,337.2 195.9,340.1 204.7,340.1 205.5,339.7 206,339.3 
		206.5,338.4 206.5,332.2 206.1,331.2 205.6,330.8 204.8,330.3 198.3,330.3 198.1,330.1 198.1,325 198.3,324.9 204.3,324.9 
		204.3,325.6 206.5,325.6 206.5,322.6 197.7,322.6 	"/>
	<polygon class="st0" points="247.3,323.1 246.8,323.5 246.4,324.4 246.4,330.6 246.8,331.5 247.2,332 248.1,332.5 254.6,332.5 
		254.7,332.7 254.7,337.7 254.6,337.9 248.6,337.9 248.6,337.2 246.4,337.2 246.4,340.1 255.2,340.1 256,339.7 256.5,339.3 
		256.9,338.4 257,332.2 256.5,331.2 256.1,330.8 255.2,330.3 248.7,330.3 248.6,330.1 248.6,325 248.7,324.9 254.7,324.9 
		254.7,325.6 257,325.6 257,322.6 248.2,322.6 	"/>
	<polygon class="st0" points="261.1,325.6 263.4,325.6 263.4,324.9 265.3,324.9 265.3,337.9 264.6,337.9 264.6,340.1 268.3,340.1 
		268.3,337.9 267.6,337.9 267.6,324.9 269.5,324.9 269.5,325.6 271.8,325.6 271.8,322.6 261.1,322.6 	"/>
	<polygon class="st0" points="283.6,324.9 284.3,324.9 284.3,337.7 284.2,337.9 279.1,337.9 278.9,337.7 278.9,324.9 279.7,324.9 
		279.7,322.6 275.9,322.6 275.9,324.9 276.7,324.9 276.7,338.3 277.1,339.2 277.6,339.6 278.4,340.1 284.8,340.1 285.6,339.7 
		286.1,339.3 286.5,338.4 286.6,324.9 287.3,324.9 287.3,322.6 283.6,322.6 	"/>
	<polygon class="st0" points="291.5,324.9 292.3,324.9 292.3,337.9 291.5,337.9 291.5,340.1 295.3,340.1 295.3,337.9 294.5,337.9 
		294.5,332.5 299.8,332.5 299.8,330.3 294.5,330.3 294.5,324.9 299.9,324.9 299.9,325.6 302.1,325.6 302.1,322.6 291.5,322.6 	"/>
	<polygon class="st0" points="306.3,324.9 307.1,324.9 307.1,337.9 306.3,337.9 306.3,340.1 310.1,340.1 310.1,337.9 309.3,337.9 
		309.3,332.5 314.6,332.5 314.6,330.3 309.3,330.3 309.3,324.9 314.7,324.9 314.7,325.6 316.9,325.6 316.9,322.6 306.3,322.6 	"/>
	<path class="st0" d="M218.9,337.6l2-0.5l-0.3-1.2l-0.4,0.1l-0.6-2.5l2.5-0.6l0.6,2.5l-0.4,0.1l0.3,1.2l2-0.5l-0.3-1.2l-0.4,0.1
		l-1.7-6.4l-0.3-0.4l-0.3-0.2l-0.6-0.1l-3,0.8l-0.4,0.3l-0.2,0.3l-0.1,0.6l1.7,6.5l-0.4,0.1L218.9,337.6z M218.6,329.9L218.6,329.9
		l2.4-0.7l0.1,0l0.6,2.4l-2.5,0.6L218.6,329.9z"/>
	<polygon class="st0" points="232.1,334.2 230.2,326.8 230.6,326.7 230.3,325.5 228.3,326 228.6,327.2 229,327.1 230.2,331.8 
		225.7,326.7 224.2,327 224.6,328.3 224.9,328.2 226.5,334.3 226.2,334.4 226.5,335.7 228.4,335.2 228.1,333.9 227.8,334 
		226.6,329.4 231,334.5 	"/>
	<path class="st0" d="M234.4,333.6l4.3-1.1l0.4-0.3l0.2-0.3l0.1-0.6l-1.7-6.7l-0.3-0.4l-0.3-0.2l-0.6-0.1l-4.4,1.1l0.3,1.2l0.4-0.1
		l1.6,6.2l-0.4,0.1L234.4,333.6z M234.1,325.8l2.4-0.6l0.1,0l1.6,6.1l0,0.1l-2.4,0.6L234.1,325.8z"/>
	<rect x="218.6" y="336.1" transform="matrix(0.968 -0.2508 0.2508 0.968 -77.083 68.3245)" class="st0" width="21.9" height="1"/>
	<rect x="215.6" y="324" transform="matrix(0.9682 -0.2503 0.2503 0.9682 -74.0266 67.043)" class="st0" width="21.9" height="1"/>
	<path class="st0" d="M313.5,145.5c4-10.2,4.8-14.7,2.3-32.3c-0.9-6.2-4.1-12.9-8.7-13.9c-1-1.5-2.4-2.7-4-3.9
		c-3.9-3.1-8.4-6.5-13.6-8.6c-2-0.8-3.9-1.3-5.9-1.7c-1.1-2.5-2.6-5-4.2-7.4c4.3-6.1,8.1-12.7,6-20.2c-1-3.5-3.5-6.6-6-9.5
		c-2.3-2.7-4.5-5.3-5.3-8c0.3-3.8-0.2-7.6-1.6-11l-1.4-3.4l-1.2,3.4c-3.5,9.9-8.8,18.9-15.6,26.9c-3.5-0.1-6.9,1.6-10.1,3.3
		c-0.9,0.5-1.8,0.9-2.7,1.4c-8.2,3.8-18.6,3.9-29.3,0.1c-9.7-3.4-18.3-9.4-26.7-15.1l-0.3,0.4c-0.3-0.1-0.6-0.2-0.9-0.2
		c-0.6,0-1.1,0.2-1.5,0.7c-0.5,0.7-0.5,1.5-0.5,1.9l1.1,17.9c0.1,1.4,1.3,8.8,2.2,10.4c0.1,0.1,0.2,0.3,0.3,0.4
		c-9.1,0.9-17.6,3.8-24,6.2c-5.3,2-12.5,4.8-18.7,2.4c-17.5-6.6-41.5-13.6-56.3-9.7c-6.6,1.7-18,6.8-23.7,11.4
		c-13.4,10.7-25.7,33.5-27.9,51.8c-0.8,6.8-1.3,20.3,4.6,34.9c5.8,14.3,16,25.7,30.4,33.8c8.3,4.7,12.3,16.8,16.2,28.5
		c0.6,1.8,1.2,3.7,1.8,5.4c1.1,3.1,2.4,8.3,3.7,13.7c2.5,10.1,5.4,21.5,8.7,27.9c0.3,0.5,0.6,1,0.9,1.4c-0.7,2.5-0.9,3.6-1.2,4.7
		c-0.3,1.1-0.6,2.3-1.4,5.3c-0.3,1.2-0.7,2.7-0.4,4.2c0.4,1.6,1.5,3.1,3.3,4.3c2.1,1.4,5.8,2,11.5,2c3,0,6.7-0.2,10.9-0.6
		c3.4-0.3,11.5-1.6,11.8-6.7c0.1-1.6-1.5-8.1-4.3-14.3c0.1-0.1,0.2-0.3,0.2-0.4c3.6-7.1,5.7-22,7.1-31.9c0.2-1.6,0.4-3.1,0.6-4.3
		l4.1-26.6c0.8,3.9,1.5,8.3,2.3,12.8c3.3,18.7,7.1,39.9,12.6,49.4c-0.7,2.7-0.9,3.9-1.1,5.1c-0.2,1.3-0.5,2.5-1.2,5.5
		c-0.3,1.2-0.7,2.7-0.4,4.2c0.4,1.6,1.5,3.1,3.3,4.3c2.1,1.4,5.8,2,11.5,2c3,0,6.7-0.2,10.9-0.6c3.4-0.3,11.5-1.6,11.8-6.7
		c0.1-1.7-2.1-8.5-4.6-14.3c5.7-7.7,11-27.5,16.7-50.5c1.9-7.7,3.6-14.3,4.8-18c1.7-5.3,6.1-8.6,11.7-12.8c5-3.8,10.6-7.9,15.6-14.5
		c2.8,1.2,6.5,1.7,10.4,1.7c9.6,0,20.9-2.8,25.1-4.9c9.1-4.5,12.5-9.2,14.8-12.4c0.2-0.2,0.3-0.5,0.5-0.7l-1.1-0.8l1.2,0.8
		c0.4-0.7,0.9-1.4,1.3-2.2C297.9,165.7,309.5,155.5,313.5,145.5z M288.5,89.4c4.8,1.9,9.2,5.3,12.9,8.2c1.5,1.2,2.8,2.3,3.7,3.7
		c0.7,1.1,1.1,2.6,1.2,4.3c0.6,8.9-6,16.6-12.8,20.2c-8,4.3-17.3,5-25.5,5.1c-3,0-12,0.1-14.2-4.8c-0.8-1.8,0-6.7,0.8-9.3
		c1.8-5.3,3.7-8.8,6.1-13.3c0.5-0.9,1-1.8,1.5-2.7c3.4-6.3,7.4-10.4,11.9-12.1C278.3,87.1,283.4,87.4,288.5,89.4z M273.6,43.8
		c1.2,1.9,2.7,3.8,4.2,5.6c2.3,2.8,4.8,5.6,5.6,8.7c1.8,6.4-1.3,12.1-5.3,17.8c-4.5-5.8-10.1-11-14.7-15.2c-0.1-0.1-0.1-0.1-0.2-0.2
		C268.5,56.4,272.1,50.2,273.6,43.8z M271,33.9c1.6,8.7-2.4,19.1-9.9,24.8c-1.1-0.9-2.3-1.6-3.7-2.1C263.1,49.7,267.6,42.1,271,33.9
		z M185.6,66.1l-1.1-17.8c0.3,0.2,0.7,0.5,1,0.7c1.4,1.9,2.8,3.8,4.1,5.7c2.4,3.4,4.9,7,7.8,10.2c3.3,3.7,8.5,8.2,15,9.8
		c-2.8,1.5-6.2,3-8.7,3.4c-0.7-0.2-1.4-0.3-2.2-0.5c-4.3-0.9-8.6-1-12.8-0.8c-0.4-0.3-0.8-0.7-1.1-1.2
		C186.9,74.5,185.7,67.6,185.6,66.1z M133.4,297.8c-0.1,1.5-2.6,3.4-9.2,4.1c-11.1,1-18,0.7-20.5-1c-0.8-0.5-1.9-1.4-2.1-2.5
		c-0.2-0.9,0.1-1.9,0.3-2.9c0.8-3,1.1-4.2,1.4-5.4c0.2-0.8,0.4-1.6,0.8-3c2.1,1.5,5,2.1,9.2,2.1c0,0,0,0,0.1,0
		c7.6,0,13.3-0.3,16.7-3.1C132.3,291.9,133.5,297,133.4,297.8z M191,296.3c-0.1,1.5-2.6,3.4-9.2,4.1c-11.1,1-18,0.7-20.5-1
		c-0.8-0.5-1.9-1.4-2.1-2.5c-0.2-0.9,0.1-1.9,0.3-2.9c0.8-3.1,1-4.4,1.3-5.7c0.2-0.9,0.3-1.8,0.7-3.2c6.2,3.9,21.1,2.3,25.1-0.2
		c0.2-0.1,0.4-0.3,0.6-0.4C189.4,290,191,295.3,191,296.3z M237.2,182.7C237.2,182.7,237.2,182.7,237.2,182.7l-1.9,2.1
		c0.1,0.1,0.2,0.1,0.3,0.2c-4.7,6.1-10,10.1-14.8,13.7c-2.8,2.1-5.5,4.1-7.7,6.3c-1.3,0.9-2.7,1.6-4.1,2.4c-2,1-4,1.8-6,2.5
		c-2.1,0.7-4.1,1.3-6.3,1.6c-2.1,0.4-4.3,0.7-6.5,0.8c-0.5,0.1-1.1,0-1.6,0.1c-0.5,0-1.1,0-1.6,0c-1.1,0-2.2,0-3.3-0.1
		c-4.4-0.3-8.7-1-13.1-2c4.1,1.8,8.5,3,12.9,3.6c2.2,0.3,4.5,0.4,6.8,0.4c2.3,0,4.5-0.3,6.8-0.7c2.2-0.4,4.4-1,6.6-1.8
		c2.1-0.8,4.2-1.8,6.1-2.9c0.1-0.1,0.2-0.2,0.4-0.2c-0.9,1.3-1.6,2.7-2.1,4.3c-1.3,3.7-2.9,10.4-4.9,18.2
		c-4.7,18.9-11.9,47.6-18.2,51.5c-3.8,2.4-20.5,3.5-23.2-0.9c-5.5-8.8-9.4-31-12.6-48.9c-1.2-6.9-2.4-13.5-3.5-18.6
		c0.6-0.1,1.2-0.3,1.7-0.6c1.2-0.5,2.2-1.3,3-2.3c-1.3,0.2-2.4,0.5-3.5,0.7c-0.6,0.1-1.1,0.2-1.6,0.2c0,0,0,0,0,0l-2,0.1
		c-1,0-2-0.1-3.1-0.1c-1.2,0-2.4,0-3.7,0.2c1.1,0.6,2.3,1.1,3.4,1.4c0.7,0.2,1.5,0.4,2.3,0.5l-4.9,32.4c-0.2,1.3-0.4,2.7-0.6,4.3
		c-1.4,9.7-3.5,24.3-6.9,31.1c-1.9,3.7-6.6,4.3-16.5,4.3c0,0,0,0,0,0c-6.3,0-8.4-1.6-9.9-4.4c-3.2-6-6-17.3-8.5-27.2
		c-1.4-5.7-2.7-10.7-3.8-13.9c-0.6-1.8-1.2-3.6-1.8-5.4c-2.8-8.3-5.6-16.8-10-23c1.4,0.9,2.9,1.8,4.4,2.5c2,1,4.2,1.8,6.4,2.4
		c2.2,0.6,4.4,1,6.7,1.2c2.3,0.2,4.5,0.2,6.8,0.1c2.3-0.2,4.5-0.5,6.7-1c4.4-1,8.6-2.6,12.6-4.7c-4.3,1.3-8.5,2.5-12.9,3.1
		c-1.1,0.2-2.2,0.3-3.3,0.4c-0.5,0.1-1.1,0.1-1.6,0.1c-0.5,0-1.1,0.1-1.6,0.1c-2.2,0.1-4.3,0-6.5-0.2c-2.2-0.2-4.3-0.6-6.4-1.1
		c-2.1-0.5-4.2-1.2-6.2-2c-2.4-1-4.8-2.1-7.1-3.5c-1.6-1.8-3.5-3.4-5.5-4.6c-13.8-7.8-23.7-18.7-29.2-32.4c-5.7-14-5.2-27-4.4-33.4
		c2.2-17.7,14-39.6,26.9-49.9c5.2-4.2,16.3-9.2,22.6-10.8c2.7-0.7,5.7-1,8.9-1c14.8,0,34.2,6.3,45.7,10.6c7.3,2.7,15.1-0.3,20.8-2.5
		c9.6-3.7,24-8.3,37.9-5.5c14.3,2.8,24.1,6.3,31.9,15.3c8.4,9.7,14.1,23.6,15.8,38.2c1.4,11.8,0.7,29.6-10.4,47.3
		C237.9,181.7,237.6,182.2,237.2,182.7z M292.3,164.1c0.8-1.6,1.6-3.2,2.3-4.9c0.8-1.9,1.6-3.8,2.2-5.8c0.6-2,1.1-4,1.2-6
		c-0.3,2-1.1,3.9-1.9,5.8c-0.8,1.9-1.8,3.6-2.8,5.4c-1,1.7-2.1,3.4-3.3,5.1c-1.1,1.7-2.3,3.3-3.5,4.9l0,0c-0.2,0.2-0.3,0.5-0.5,0.7
		c-2.2,3.1-5.2,7.3-13.7,11.5c-5.9,2.9-24.4,6.5-32.6,3.4c0.3-0.5,0.6-0.9,0.9-1.4c11.5-18.3,12.2-36.8,10.8-49.1
		c-1.7-15.2-7.7-29.7-16.5-39.7c-5.4-6.3-12.1-11.1-27-14.8c3.8-1.4,7.3-3.6,8-4l2.6-1.6l-3.1-0.3c-7.2-0.7-12.9-5.6-16.5-9.6
		c-2.8-3.1-5.2-6.6-7.6-10c-0.2-0.3-0.5-0.7-0.7-1c6.5,4.3,13.2,8.3,20.6,10.9c11.4,4,22.5,4,31.4-0.2c0.9-0.4,1.9-0.9,2.8-1.4
		c3.6-1.9,7.1-3.7,10.4-2.7c2.2,0.6,4,2.3,5.6,3.8c6.3,5.8,14.8,13.6,18.9,22c-2.6-0.1-5,0.3-7.2,1.2c-5.2,1.9-9.7,6.5-13.4,13.4
		c-0.5,1-1,1.9-1.5,2.7c-2.5,4.6-4.5,8.2-6.3,13.8c-0.8,2.4-2.1,8.4-0.7,11.3c2.8,6.1,11.7,6.5,15.9,6.5c0.4,0,0.7,0,1,0
		c7.4-0.1,15.9-0.6,23.6-3.9c-0.1,0.2-0.2,0.4-0.3,0.6c-0.3,0.6-0.6,1.2-1,1.8l-0.5,0.9c-0.2,0.3-0.4,0.6-0.6,0.9
		c-1.6,2.3-3.5,4.3-5.6,6.1c-0.6,0.4-1.1,0.8-1.7,1.3c-0.3,0.2-0.6,0.4-0.9,0.6l-0.9,0.5c-0.6,0.4-1.2,0.8-1.8,1.1l-1.9,0.9
		c-0.3,0.2-0.6,0.3-1,0.5l-1,0.4l-2,0.8c-1.4,0.4-2.7,0.8-4.1,1.2c1.4-0.3,2.8-0.5,4.2-0.9l2.1-0.6l1-0.3c0.3-0.1,0.7-0.3,1-0.4
		l2-0.8c0.7-0.3,1.3-0.6,2-1l1-0.5c0.3-0.2,0.6-0.4,0.9-0.6c0.6-0.4,1.2-0.8,1.9-1.2c2.4-1.7,4.6-3.7,6.5-6c0.2-0.3,0.5-0.6,0.7-0.9
		l0.7-0.9c0.5-0.6,0.8-1.2,1.2-1.9c0.4-0.7,0.7-1.3,1.1-2c0.2-0.3,0.3-0.7,0.5-1c0.1-0.2,0.1-0.3,0.2-0.5
		c7.4-4.2,14.5-12.7,13.8-22.7c0-0.6-0.1-1.2-0.2-1.8c1.6,1.7,3.4,4.9,4.1,10c2.4,17,1.8,21-2.1,30.8
		C307.7,152.4,299.1,160.6,292.3,164.1z"/>
	<path class="st0" d="M89.8,154.1v-2.2c0-1.9-1.4-3.3-3.4-3.3h-5.7c-2,0-3.4,1.3-3.4,3.3v10.2c0,1.9,1.4,3.3,3.4,3.3h5.7
		c2,0,3.4-1.3,3.4-3.3V156h-6.6v3h3.2v2.5c0,0.5-0.3,0.8-0.8,0.8h-4c-0.5,0-0.8-0.3-0.8-0.8v-9c0-0.5,0.3-0.8,0.8-0.8h4
		c0.5,0,0.8,0.3,0.8,0.8v1.5H89.8z"/>
	<path class="st0" d="M95.2,148.7v13.4c0,1.9,1.4,3.3,3.4,3.3h5.5c2,0,3.4-1.3,3.4-3.3v-13.4h-3.5v12.8c0,0.5-0.3,0.8-0.8,0.8h-3.8
		c-0.5,0-0.8-0.3-0.8-0.8v-12.8H95.2z"/>
	<path class="st0" d="M116.5,148.6c-2,0-3.4,1.3-3.4,3.3v2.8c0,1.8,1.6,2.9,3.5,3.3l4.5,0.9c0.5,0.1,0.8,0.3,0.8,0.8v1.8
		c0,0.5-0.3,0.8-0.8,0.8h-3.7c-0.5,0-0.8-0.3-0.8-0.8V160H113v2.1c0,1.9,1.4,3.3,3.4,3.3h5.4c2,0,3.4-1.3,3.4-3.3v-3
		c0-1.8-1.6-2.9-3.5-3.3l-4.5-0.9c-0.5-0.1-0.8-0.3-0.8-0.8v-1.6c0-0.5,0.3-0.8,0.8-0.8h3.5c0.5,0,0.8,0.3,0.8,0.8v1.3h3.4v-1.9
		c0-1.9-1.4-3.3-3.4-3.3H116.5z"/>
	<polygon class="st0" points="137.4,165.3 137.4,151.8 141.9,151.8 141.9,148.7 129.4,148.7 129.4,151.8 133.9,151.8 133.9,165.3 	
		"/>
	<path class="st0" d="M143.7,165.3h3.6l1.2-3.7h5.6l1.1,3.7h3.7l-5.6-16.6h-4L143.7,165.3z M151.3,152.4l1.8,6.1h-3.7L151.3,152.4z"
		/>
	<polygon class="st0" points="167.7,161.4 164.4,148.7 160.4,148.7 165.7,165.3 169.7,165.3 175,148.7 171.2,148.7 	"/>
	<path class="st0" d="M188.2,165.4c2,0,3.4-1.3,3.4-3.3v-10.2c0-1.9-1.4-3.3-3.4-3.3h-5.8c-2,0-3.4,1.3-3.4,3.3v10.2
		c0,1.9,1.4,3.3,3.4,3.3H188.2z M182.5,152.6c0-0.5,0.3-0.8,0.8-0.8h4.1c0.5,0,0.8,0.3,0.8,0.8v9c0,0.5-0.3,0.8-0.8,0.8h-4.1
		c-0.5,0-0.8-0.3-0.8-0.8V152.6z"/>
	<path class="st0" d="M197,160v2.1c0,1.9,1.4,3.3,3.4,3.3h5.4c2,0,3.4-1.3,3.4-3.3v-3c0-1.8-1.6-2.9-3.5-3.3l-4.5-0.9
		c-0.5-0.1-0.8-0.3-0.8-0.8v-1.6c0-0.5,0.3-0.8,0.8-0.8h3.5c0.5,0,0.8,0.3,0.8,0.8v1.3h3.4v-1.9c0-1.9-1.4-3.3-3.4-3.3h-5.1
		c-2,0-3.4,1.3-3.4,3.3v2.8c0,1.8,1.6,2.9,3.5,3.3l4.5,0.9c0.5,0.1,0.8,0.3,0.8,0.8v1.8c0,0.5-0.3,0.8-0.8,0.8h-3.7
		c-0.5,0-0.8-0.3-0.8-0.8V160H197z"/>
	<path class="st0" d="M221.2,134.5h-1h-5.8c-1,0-1.9,0-2.9,0c-1,0.3-1.9,0.6-2.9,1c1,0.4,1.9,0.7,2.9,1c1-0.1,1.9,0,2.9,0h4.9v4.5
		c0,0.9,0,1.8,0,2.7c0.3,0.9,0.6,1.8,0.9,2.7c0.4-0.9,0.7-1.8,0.9-2.7c0.1-0.9,0-1.8,0-2.7v-5.4V134.5z"/>
	<path class="st0" d="M214.4,179.4c-1,0-1.9,0-2.9,0c-1,0.3-1.9,0.6-2.9,1c1,0.4,1.9,0.7,2.9,1c1-0.1,1.9,0,2.9,0h5.8h1v-1V175
		c0-0.9,0-1.8,0-2.7c-0.3-0.9-0.6-1.8-0.9-2.7c-0.4,0.9-0.7,1.8-0.9,2.7c-0.1,0.9,0,1.8,0,2.7v4.5H214.4z"/>
	<path class="st0" d="M72.2,136.6c1,0,1.9,0,2.9,0c1-0.3,1.9-0.6,2.9-1c-1-0.4-1.9-0.7-2.9-1c-1,0.1-1.9,0-2.9,0h-5.8h-1v1v5.4
		c0,0.9,0,1.8,0,2.7c0.3,0.9,0.6,1.8,0.9,2.7c0.4-0.9,0.7-1.8,0.9-2.7c0.1-0.9,0-1.8,0-2.7v-4.5H72.2z"/>
	<path class="st0" d="M65.4,181.4h1h5.8c1,0,1.9,0,2.9,0c1-0.3,1.9-0.6,2.9-1c-1-0.4-1.9-0.7-2.9-1c-1,0.1-1.9,0-2.9,0h-4.9V175
		c0-0.9,0-1.8,0-2.7c-0.3-0.9-0.6-1.8-0.9-2.7c-0.4,0.9-0.7,1.8-0.9,2.7c-0.1,0.9,0,1.8,0,2.7v5.4V181.4z"/>
	<path class="st0" d="M78.7,175l-0.2-0.2h-0.3h-6.5v-6v-0.3l-0.2-0.3l-4-5.4v-9.6l1.9-2.6c0.7-0.9,1.4-1.9,2.1-2.8l0.2-0.3l0-0.3
		l-0.1-3.5l-0.1-2.7l6.6-0.2l0.2,0l0.1-0.1l6.6-4.7c4.4-0.1,8.9-0.3,13.3-0.4c-4.5-0.1-9-0.3-13.4-0.4l-0.1,0l-0.1,0.1l-6.8,4.3
		l-7.3-0.2l-0.8,0l0,0.8l-0.1,3.5l-0.1,3.1c-0.7,0.9-1.3,1.7-1.9,2.6l-2.1,2.8l-0.2,0.3v0.3v10.3v0.3l0.2,0.3l4,5.4v6.6v1h1h7.2
		l6.6,4.4l0.2,0.2l0.3,0l116.9,0l0.3,0l0.2-0.2l6.6-4.4h7.2h1v-1v-6.6l4-5.4l0.2-0.3v-0.3v-10.3v-0.3l-0.2-0.3l-2.1-2.8
		c-0.6-0.9-1.3-1.7-1.9-2.6c0-1,0-2.1-0.1-3.1l-0.1-3.5l0-0.8l-0.8,0l-7.3,0.2l-6.7-4.3l-0.1-0.1l-0.1,0c-4.5,0.1-9,0.3-13.4,0.4
		c4.4,0.1,8.9,0.3,13.3,0.4l6.6,4.7l0.1,0.1l0.2,0l6.6,0.2l-0.1,2.7c0,1.2-0.1,2.3-0.1,3.5l0,0.3l0.2,0.3c0.7,1,1.4,1.9,2.1,2.8
		l1.9,2.6v9.6l-4,5.4l-0.2,0.3v0.3v6h-6.5h-0.3l-0.2,0.2l-6.6,4.4l-116.3,0L78.7,175z"/>
	<path class="st0" d="M115.3,141h4.1c1.5,0,2.5-1,2.5-2.5v-4.6h-4.8v2.3h2.3v1.9c0,0.4-0.2,0.6-0.6,0.6H116c-0.4,0-0.6-0.2-0.6-0.6
		v-6.7c0-0.4,0.2-0.6,0.6-0.6h2.9c0.4,0,0.6,0.2,0.6,0.6v1.1h2.5v-1.6c0-1.5-1-2.5-2.5-2.5h-4.1c-1.5,0-2.5,1-2.5,2.5v7.7
		C112.9,140,113.9,141,115.3,141z"/>
	<path class="st0" d="M128.2,141h4.2c1.5,0,2.5-1,2.5-2.5v-7.7c0-1.5-1-2.5-2.5-2.5h-4.2c-1.5,0-2.5,1-2.5,2.5v7.7
		C125.8,140,126.8,141,128.2,141z M128.3,131.3c0-0.4,0.2-0.6,0.6-0.6h2.9c0.4,0,0.6,0.2,0.6,0.6v6.7c0,0.4-0.2,0.6-0.6,0.6h-2.9
		c-0.4,0-0.6-0.2-0.6-0.6V131.3z"/>
	<path class="st0" d="M141.6,136.3h2l2,4.6h2.7l-2.1-4.7c1-0.3,1.7-1.2,1.7-2.4v-2.9c0-1.5-1-2.5-2.5-2.5h-6.4v12.5h2.5V136.3z
		 M141.6,130.8h3.3c0.4,0,0.6,0.2,0.6,0.6v2c0,0.4-0.2,0.6-0.6,0.6h-3.3V130.8z"/>
	<path class="st0" d="M161.1,138.5v-7.6c0-1.5-1-2.5-2.5-2.5h-6.5v12.5h6.5C160.1,140.9,161.1,139.9,161.1,138.5z M158.6,138
		c0,0.4-0.2,0.6-0.6,0.6h-3.4v-7.8h3.4c0.4,0,0.6,0.2,0.6,0.6V138z"/>
	<path class="st0" d="M165,130.8v7.7c0,1.5,1,2.5,2.5,2.5h4.2c1.5,0,2.5-1,2.5-2.5v-7.7c0-1.5-1-2.5-2.5-2.5h-4.2
		C166,128.4,165,129.4,165,130.8z M167.5,131.3c0-0.4,0.2-0.6,0.6-0.6h2.9c0.4,0,0.6,0.2,0.6,0.6v6.7c0,0.4-0.2,0.6-0.6,0.6h-2.9
		c-0.4,0-0.6-0.2-0.6-0.6V131.3z"/>
	<polygon class="st0" points="179,131.7 224.4,131.7 224.4,183.7 63.5,183.7 63.5,131.7 107.6,131.7 107.6,129.6 61.4,129.6 
		61.4,185.8 226.5,185.8 226.5,129.6 179,129.6 	"/>
</g>
</svg>
