<?xml version="1.0" encoding="UTF-8"?>
<svg width="100%" height="100%" viewBox="0 0 256 256" version="1.1" xmlns="http://www.w3.org/2000/svg" xmlns:xlink="http://www.w3.org/1999/xlink">
  <!-- Generator: Sketch 42 (36781) - http://www.bohemiancoding.com/sketch -->
  <title>facebook-icon</title>
  <desc>Created with Sketch.</desc>
  <defs></defs>
  <g id="Page-1" stroke="none" stroke-width="1" fill="none" fill-rule="evenodd">
    <g id="facebook-icon" fill-rule="nonzero">
      <path
        d="M241.775221,255.899326 C249.574112,255.899326 255.897408,249.575071 255.897408,241.77618 L255.897408,14.1231461 C255.897408,6.32137828 249.573154,0 241.775221,0 L14.1231461,0 C6.32137828,0 0,6.32233708 0,14.1231461 L0,241.775221 C0,249.575071 6.32137828,255.898367 14.1231461,255.898367 L241.775221,255.898367 L241.775221,255.899326 Z"
        id="Shape"
        fill="#D1D3D4"></path>
      <path
        d="M176.565213,255.899326 L176.565213,156.801438 L209.827955,156.801438 L214.80797,118.180914 L176.564255,118.180914 L176.564255,93.5234157 C176.564255,82.3418727 179.668854,74.7222772 195.70385,74.7222772 L216.154127,74.7126891 L216.154127,40.1709064 C212.617109,39.7010936 200.476764,38.6492884 186.354577,38.6492884 C156.868554,38.6492884 136.681948,56.6469513 136.681948,89.6997154 L136.681948,118.180914 L103.333873,118.180914 L103.333873,156.801438 L136.681948,156.801438 L136.681948,255.898367 L176.565213,255.898367 L176.565213,255.899326 Z"
        id="Shape"
        fill="#FFFFFF"></path>
    </g>
  </g>
</svg>
