<?xml version="1.0" encoding="utf-8"?>
<!-- Generator: Adobe Illustrator 21.0.2, SVG Export Plug-In . SVG Version: 6.00 Build 0)  -->
<svg version="1.1" id="Layer_1" xmlns="http://www.w3.org/2000/svg" xmlns:xlink="http://www.w3.org/1999/xlink" x="0px" y="0px" width="100%" height="100%"
	 viewBox="0 0 144 144" style="enable-background:new 0 0 144 144;" xml:space="preserve">
<style type="text/css">
	.st0{fill:#A6A8AB;}
</style>
<path class="st0" d="M72.3,0.4C32.9,0.4,1,32.3,1,71.7S32.9,143,72.3,143s71.3-31.9,71.3-71.3S111.7,0.4,72.3,0.4z M94,43.2
	c0,0.2-0.2,0.4-0.4,0.4h-12c-0.2,0-0.4,0.2-0.4,0.4v10.6c0,0.2,0.2,0.4,0.4,0.4h12c0.2,0,0.4,0.2,0.4,0.4v16.8
	c0,0.2-0.2,0.4-0.4,0.4h-12c-0.2,0-0.4,0.2-0.4,0.4v44.7c0,0.2-0.2,0.4-0.4,0.4H60.6c-0.2,0-0.4-0.2-0.4-0.4V73.2
	c0-0.2-0.2-0.4-0.4-0.4h-8.6c-0.2,0-0.4-0.2-0.4-0.4V55.5c0-0.2,0.2-0.4,0.4-0.4h8.6c0.2,0,0.4-0.2,0.4-0.4V41.9v-1.8
	c0-8.3,6.7-15,15-15h18.4c0.2,0,0.4,0.2,0.4,0.4V43.2z"/>
</svg>
