<?xml version="1.0" encoding="UTF-8"?>
<svg width="28px" height="18px" viewBox="0 0 28 18" version="1.1" xmlns="http://www.w3.org/2000/svg" xmlns:xlink="http://www.w3.org/1999/xlink">
    <!-- Generator: Sketch 42 (36781) - http://www.bohemiancoding.com/sketch -->
    <title>hamburger</title>
    <desc>Created with Sketch.</desc>
    <defs></defs>
    <g id="Page-1" stroke="none" stroke-width="1" fill="none" fill-rule="evenodd">
        <g id="hamburger" fill="#000000">
            <g id="bottom" transform="translate(0.000000, 14.000000)">
                <path d="M14,0.00438084187 C13.9763904,0.00147560778 13.9525727,0 13.9285714,0 L1.07142857,0 C0.48,0 0,0.896 0,2 C0,3.104 0.48,4 1.07142857,4 L13.9285714,4 C13.9525727,4 13.9763904,3.99852439 14,3.99561916 C14.0236096,3.99852439 14.0474273,4 14.0714286,4 L26.9285714,4 C27.52,4 28,3.104 28,2 C28,0.896 27.52,0 26.9285714,0 L14.0714286,0 C14.0474273,0 14.0236096,0.00147560778 14,0.00438084187 Z" id="Combined-Shape"></path>
            </g>
            <g id="middle" transform="translate(0.000000, 7.000000)">
                <path d="M14,0.00438084187 C13.9763904,0.00147560778 13.9525727,0 13.9285714,0 L1.07142857,0 C0.48,0 0,0.896 0,2 C0,3.104 0.48,4 1.07142857,4 L13.9285714,4 C13.9525727,4 13.9763904,3.99852439 14,3.99561916 C14.0236096,3.99852439 14.0474273,4 14.0714286,4 L26.9285714,4 C27.52,4 28,3.104 28,2 C28,0.896 27.52,0 26.9285714,0 L14.0714286,0 C14.0474273,0 14.0236096,0.00147560778 14,0.00438084187 Z" id="Combined-Shape"></path>
            </g>
            <g id="top">
                <path d="M14.0714286,4 L26.9285714,4 C27.52,4 28,3.104 28,2 C28,0.896 27.52,0 26.9285714,0 L14.0714286,0 C13.48,0 13,0.896 13,2 C13,3.104 13.48,4 14.0714286,4 Z" id="Right"></path>
                <path d="M1.07142857,4 L13.9285714,4 C14.52,4 15,3.104 15,2 C15,0.896 14.52,0 13.9285714,0 L1.07142857,0 C0.48,0 0,0.896 0,2 C0,3.104 0.48,4 1.07142857,4 Z" id="Left"></path>
            </g>
        </g>
    </g>
</svg>