<?xml version="1.0" encoding="UTF-8"?>
<svg width="100%" height="100%" viewBox="0 0 1473 1559" version="1.1" xmlns="http://www.w3.org/2000/svg" xmlns:xlink="http://www.w3.org/1999/xlink">
  <!-- Generator: Sketch 42 (36781) - http://www.bohemiancoding.com/sketch -->
  <title>arrow-right</title>
  <desc>Created with Sketch.</desc>
  <defs></defs>
  <g id="Page-1" stroke="none" stroke-width="1" fill="none" fill-rule="evenodd">
    <g id="arrow-right" fill-rule="nonzero" fill="rgba(106, 106, 106, 0.7)">
      <g id="g3015" transform="translate(736.271190, 779.050800) scale(-1, 1) rotate(-180.000000) translate(-736.271190, -779.050800) translate(0.271190, 0.050800)">
        <path
          d="M1472,779 C1472,743 1459.66667,712.666667 1435,688 L784,37 C758,12.3333333 727.666667,0 693,0 C659,0 629,12.3333333 603,37 L528,112 C502.666667,137.333333 490,167.666667 490,203 C490,238.333333 502.666667,268.666667 528,294 L821,587 L117,587 C82.3333333,587 54.1666667,599.5 32.5,624.5 C10.8333333,649.5 0,679.666667 0,715 L0,843 C0,878.333333 10.8333333,908.5 32.5,933.5 C54.1666667,958.5 82.3333333,971 117,971 L821,971 L528,1265 C502.666667,1289 490,1319 490,1355 C490,1391 502.666667,1421 528,1445 L603,1520 C628.333333,1545.33333 658.333333,1558 693,1558 C728.333333,1558 758.666667,1545.33333 784,1520 L1435,869 C1459.66667,845.666667 1472,815.666667 1472,779 Z"
          id="path3017"></path>
      </g>
    </g>
  </g>
</svg>
