<?xml version="1.0" encoding="UTF-8"?>
<svg width="1473px" height="1559px" viewBox="0 0 1473 1559" version="1.1" xmlns="http://www.w3.org/2000/svg" xmlns:xlink="http://www.w3.org/1999/xlink">
    <!-- Generator: Sketch 42 (36781) - http://www.bohemiancoding.com/sketch -->
    <title>arrow-left</title>
    <desc>Created with Sketch.</desc>
    <defs></defs>
    <g id="Page-1" stroke="none" stroke-width="1" fill="none" fill-rule="evenodd">
        <g id="arrow-left" fill-rule="nonzero" fill="#FFFFFF">
            <g id="g3003" transform="translate(736.711864, 779.678000) scale(-1, 1) rotate(-180.000000) translate(-736.711864, -779.678000) translate(0.711864, 0.678000)">
                <path d="M1472,843 L1472,715 C1472,679.666667 1461.16667,649.5 1439.5,624.5 C1417.83333,599.5 1389.66667,587 1355,587 L651,587 L944,293 C969.333333,269 982,239 982,203 C982,167 969.333333,137 944,113 L869,37 C844.333333,12.3333333 814.333333,-2.27373675e-13 779,-2.27373675e-13 C744.333333,-2.27373675e-13 714,12.3333333 688,37 L37,689 C12.3333333,713.666667 -2.27373675e-13,743.666667 -2.27373675e-13,779 C-2.27373675e-13,813.666667 12.3333333,844 37,870 L688,1520 C713.333333,1545.33333 743.666667,1558 779,1558 C813.666667,1558 843.666667,1545.33333 869,1520 L944,1446 C969.333333,1420.66667 982,1390.33333 982,1355 C982,1319.66667 969.333333,1289.33333 944,1264 L651,971 L1355,971 C1389.66667,971 1417.83333,958.5 1439.5,933.5 C1461.16667,908.5 1472,878.333333 1472,843 Z" id="path3005"></path>
            </g>
        </g>
    </g>
</svg>