<?xml version="1.0" encoding="utf-8"?>
<!-- Generator: Adobe Illustrator 21.0.2, SVG Export Plug-In . SVG Version: 6.00 Build 0)  -->
<svg version="1.1" id="Layer_1" xmlns="http://www.w3.org/2000/svg" xmlns:xlink="http://www.w3.org/1999/xlink" x="0px" y="0px"
	 viewBox="0 0 423.9 72.5" style="enable-background:new 0 0 423.9 72.5;" xml:space="preserve">
<g>
	<path d="M36.9,16.9c0-2.2-1.2-3.4-3.4-3.4H18c-2.2,0-3.4,1.2-3.4,3.4v38.7c0,2.2,1.2,3.4,3.4,3.4h15.6c2.2,0,3.4-1.2,3.4-3.4v-8.8
		h14.4v11.6c0,8.4-5.8,14.2-14.2,14.2H14.4C6,72.6,0.2,66.8,0.2,58.4V14.1C0.2,5.7,6-0.1,14.4-0.1h22.8c8.4,0,14.2,5.8,14.2,14.2
		v11.6H36.9V16.9z"/>
	<path d="M100.7-0.1c8.4,0,14.2,5.8,14.2,14.2v44.3c0,8.4-5.8,14.2-14.2,14.2H76.6c-8.4,0-14.2-5.8-14.2-14.2V14.1
		c0-8.4,5.8-14.2,14.2-14.2H100.7z M100.5,16.9c0-2.2-1.2-3.4-3.4-3.4H80.2c-2.2,0-3.4,1.2-3.4,3.4v38.7c0,2.2,1.2,3.4,3.4,3.4h16.9
		c2.2,0,3.4-1.2,3.4-3.4V16.9z"/>
	<path d="M184.3,0.3v71.9h-15.5l-26.5-49v49h-13.5V0.3h15.5l26.5,49v-49H184.3z"/>
	<path d="M227.9,13.7v58.5h-14.4V13.7h-18.8V0.3h51.9v13.4H227.9z"/>
	<path d="M259.1,72.2h-14.9l23.2-71.9h16.8l23.2,71.9h-15.5L287.1,56h-23.3L259.1,72.2z M267.8,42.4h15.4l-7.6-26.4L267.8,42.4z"/>
	<path d="M350.4,16.9c0-2.2-1.2-3.4-3.4-3.4h-15.6c-2.2,0-3.4,1.2-3.4,3.4v38.7c0,2.2,1.2,3.4,3.4,3.4H347c2.2,0,3.4-1.2,3.4-3.4
		v-8.8h14.4v11.6c0,8.4-5.8,14.2-14.2,14.2h-22.8c-8.4,0-14.2-5.8-14.2-14.2V14.1c0-8.4,5.8-14.2,14.2-14.2h22.8
		c8.4,0,14.2,5.8,14.2,14.2v11.6h-14.4V16.9z"/>
	<path d="M404.6,13.7v58.5h-14.4V13.7h-18.8V0.3h51.9v13.4H404.6z"/>
</g>
</svg>
