<?xml version="1.0" encoding="utf-8"?>
<!-- Generator: Adobe Illustrator 21.0.2, SVG Export Plug-In . SVG Version: 6.00 Build 0)  -->
<svg version="1.1" id="Layer_1" xmlns="http://www.w3.org/2000/svg" xmlns:xlink="http://www.w3.org/1999/xlink" x="0px" y="0px"
	 viewBox="0 0 267.2 72.5" style="enable-background:new 0 0 267.2 72.5;" xml:space="preserve">
<g>
	<path d="M0.8,0h14.4v28.4h24.8V0h14.4v72.1H40.1v-30H15.3v30H0.8V0z"/>
	<path d="M107-0.4c8.4,0,14.2,5.8,14.2,14.2v44.5c0,8.4-5.8,14.2-14.2,14.2H82.8c-8.4,0-14.2-5.8-14.2-14.2V13.8
		c0-8.4,5.8-14.2,14.2-14.2H107z M106.8,16.6c0-2.2-1.2-3.4-3.4-3.4H86.4c-2.2,0-3.4,1.2-3.4,3.4v38.9c0,2.2,1.2,3.4,3.4,3.4h16.9
		c2.2,0,3.4-1.2,3.4-3.4V16.6z"/>
	<path d="M204.2,72.1h-13.6V24L175,60.6h-10.4L148.9,24v48.1h-13.6V0h15.8l18.6,42.3L188.4,0h15.8V72.1z"/>
	<path d="M267.2,0v13.6h-32.7v14.8H261v13.6h-26.5v16.4h32.7v13.6H220V0H267.2z"/>
</g>
</svg>
