<?xml version="1.0" encoding="utf-8"?>
<!-- Generator: Adobe Illustrator 21.0.2, SVG Export Plug-In . SVG Version: 6.00 Build 0)  -->
<svg version="1.1" id="Layer_1" xmlns="http://www.w3.org/2000/svg" xmlns:xlink="http://www.w3.org/1999/xlink" x="0px" y="0px" viewBox="0 0 360 360" style="enable-background:new 0 0 360 360;" xml:space="preserve">
	<style type="text/css">
		.st0 {
			fill: none;
			stroke: #231F20;
			stroke-width: 2.1258;
			stroke-miterlimit: 10;
		}
		.st1 {
			fill: #231F20;
			stroke: #231F20;
			stroke-width: 0.75;
			stroke-miterlimit: 10;
		}
		.st2 {
			stroke: #231F20;
			stroke-width: 2;
			stroke-miterlimit: 10;
		}
		.st3 {
			fill: #231F20;
			stroke: #231F20;
			stroke-width: 0.689;
			stroke-miterlimit: 10;
		}
		.st4 {
			fill: #231F20;
			stroke: #231F20;
			stroke-width: 0.5089;
			stroke-miterlimit: 10;
		}
		.st5 {
			fill: #231F20;
		}
		.st0,
		.st1,
		.st2,
		.st3,
		.st4,
		.st5 {
			fill: #fff;
			stroke: #fff;
		}
		.st0 {
			fill: none;
		}

	</style>
	<g>
		<path class="st0" d="M233.9,191"/>
	</g>
	<g>
		<path
			class="st1"
			d="M146.7,120.7c-2.4,0-4.9-1-6.1-3.8c-1.7-4.1,0.8-6.7,2.4-8.3c0.8-0.8,2-1.3,3.2-1.4l0,0
		c15.4-1.1,20.7-15.9,20.8-16l1.2-3.4l0.8,3.5c4.5,18.7-18.2,28.4-19.2,28.9C148.9,120.4,147.8,120.7,146.7,120.7z M146.3,109.2
		c-0.7,0.1-1.4,0.3-1.8,0.8c-1.8,1.8-3,3.4-1.9,6c1.3,3.1,4.9,2.7,6.4,2.1c0.8-0.4,19.2-8.2,18.5-23
		C164.7,99.9,158.4,108.4,146.3,109.2L146.3,109.2z"/>
	</g>
	<g>
		<path
			class="st1"
			d="M274.5,118.4c-0.2,0-0.5,0-0.7-0.1c-0.8-0.4-1.3-1.3-1.4-2.9c-0.6-11.1,1-13.8,2-14.5c0.5-0.4,1.2-0.4,1.8-0.1
		l0,0c3.6,1.8,2.3,11.8,0.3,16.6l-0.1,0.2l-0.1,0.1C276.2,117.7,275.4,118.4,274.5,118.4z M275.3,102c-0.1,0-0.1,0-0.1,0
		c-1.1,0.8-1.7,6.3-1.3,13.2c0.1,1.1,0.3,1.6,0.5,1.6c0.2,0.1,0.6-0.1,0.9-0.3c2.3-5.4,2.5-13.5,0.3-14.6l0,0
		C275.5,102,275.4,102,275.3,102z"/>
	</g>
	<g>
		<path
			class="st1"
			d="M293.8,111.4c-2.2,0-6.2-4.6-7.5-7.5c-1.6-2.7-3.2-6.2-1.8-7.2c0.6-0.4,1.4-0.1,2,0.2c3,1.6,8.7,7.4,8.7,12.7
		c0,1.4-0.8,1.7-1.1,1.7C294,111.4,293.9,111.4,293.8,111.4z M285.4,98c0,0.8,0.9,3.1,2.2,5.2l0,0.1c1.4,3.2,5.2,6.8,6.2,6.7
		c0,0,0-0.2,0-0.4l0,0c0-2.7-1.8-6-4.7-9C287.4,99,286,98.2,285.4,98z"/>
	</g>
	<path
		class="st1"
		d="M315.8,113.2c-0.9-6.2-4.1-12.9-8.7-13.9c-1-1.5-2.4-2.7-4-3.9c-3.9-3.1-8.4-6.5-13.6-8.6
	c-2-0.8-3.9-1.3-5.9-1.7c-1.1-2.5-2.6-5-4.2-7.4c4.3-6.1,8.1-12.7,6-20.2c-1-3.5-3.5-6.6-6-9.5c-2.3-2.7-4.5-5.3-5.3-8
	c0.3-3.8-0.2-7.6-1.6-11l-1.4-3.4l-1.2,3.4c-3.5,9.9-8.8,18.9-15.6,26.9c-3.5-0.1-6.9,1.6-10.1,3.3c-0.9,0.5-1.8,0.9-2.7,1.4
	c-8.2,3.8-18.6,3.9-29.3,0.1c-9.7-3.4-18.3-9.4-26.7-15.1l-0.3,0.4c-0.3-0.1-0.6-0.2-0.9-0.2c-0.6,0-1.1,0.2-1.5,0.7
	c-0.5,0.7-0.5,1.5-0.5,1.9l1.1,17.9c0.1,1.4,1.3,8.8,2.2,10.4c0.1,0.1,0.2,0.3,0.3,0.4c-9.1,0.9-17.6,3.8-24,6.2
	c-5.3,2-12.5,4.8-18.7,2.4c-17.5-6.6-41.5-13.6-56.3-9.7c-6.6,1.7-18,6.8-23.7,11.4c-13.4,10.7-25.7,33.5-27.9,51.8
	c-0.8,6.8-1.3,20.3,4.6,34.9c5.8,14.3,16,25.7,30.4,33.8c8.3,4.7,12.3,16.8,16.2,28.5c0.6,1.8,1.2,3.7,1.8,5.4
	c1.1,3.1,2.4,8.3,3.7,13.7c2.5,10.1,5.4,21.5,8.7,27.9c0.3,0.5,0.6,1,0.9,1.4c-0.7,2.5-0.9,3.6-1.2,4.7c-0.3,1.1-0.6,2.3-1.4,5.3
	c-0.3,1.2-0.7,2.7-0.4,4.2c0.4,1.6,1.5,3.1,3.3,4.3c2.1,1.4,5.8,2,11.5,2c3,0,6.7-0.2,10.9-0.6c3.4-0.3,11.5-1.6,11.8-6.7
	c0.1-1.6-1.5-8.1-4.3-14.3c0.1-0.1,0.2-0.3,0.2-0.4c3.6-7.1,5.7-22,7.1-31.9c0.2-1.6,0.4-3.1,0.6-4.3l4.1-26.6
	c0.8,3.9,1.5,8.3,2.3,12.8c3.3,18.7,7.1,39.9,12.6,49.4c-0.7,2.7-0.9,3.9-1.1,5.1c-0.2,1.3-0.5,2.5-1.2,5.5
	c-0.3,1.2-0.7,2.7-0.4,4.2c0.4,1.6,1.5,3.1,3.3,4.3c2.1,1.4,5.8,2,11.5,2c3,0,6.7-0.2,10.9-0.6c3.4-0.3,11.5-1.6,11.8-6.7
	c0.1-1.7-2.1-8.5-4.6-14.3c5.7-7.7,11-27.5,16.7-50.5c1.9-7.7,3.6-14.3,4.8-18c1.7-5.3,6.1-8.6,11.7-12.8c5-3.8,10.6-7.9,15.6-14.5
	c2.8,1.2,6.5,1.7,10.4,1.7c9.6,0,20.9-2.8,25.1-4.9c9.1-4.5,12.5-9.2,14.8-12.4c0.2-0.2,0.3-0.5,0.5-0.7l-1.1-0.8l1.2,0.8
	c0.4-0.7,0.9-1.4,1.3-2.2c7.8-2.4,19.4-12.5,23.4-22.5C317.6,135.3,318.4,130.8,315.8,113.2z M288.5,89.4c4.8,1.9,9.2,5.3,12.9,8.2
	c1.5,1.2,2.8,2.3,3.7,3.7c0.7,1.1,1.1,2.6,1.2,4.3c0.6,8.9-6,16.6-12.8,20.2c-8,4.3-17.3,5-25.5,5.1c-3,0-12,0.1-14.2-4.8
	c-0.8-1.8,0-6.7,0.8-9.3c1.8-5.3,3.7-8.8,6.1-13.3c0.5-0.9,1-1.8,1.5-2.7c3.4-6.3,7.4-10.4,11.9-12.1
	C278.3,87.1,283.4,87.4,288.5,89.4z M273.6,43.8c1.2,1.9,2.7,3.8,4.2,5.6c2.3,2.8,4.8,5.6,5.6,8.7c1.8,6.4-1.3,12.1-5.3,17.8
	c-4.5-5.8-10.1-11-14.7-15.2c-0.1-0.1-0.1-0.1-0.2-0.2C268.5,56.4,272.1,50.2,273.6,43.8z M271,33.9c1.6,8.7-2.4,19.1-9.9,24.8
	c-1.1-0.9-2.3-1.6-3.7-2.1C263.1,49.7,267.6,42.1,271,33.9z M187.5,75.6c-0.6-1.1-1.9-8-1.9-9.5l-1.1-17.8c0.3,0.2,0.7,0.5,1,0.7
	c1.4,1.9,2.8,3.8,4.1,5.7c2.4,3.4,4.9,7,7.8,10.2c3.3,3.7,8.5,8.2,15,9.8c-2.8,1.5-6.2,3-8.7,3.4c-0.7-0.2-1.4-0.3-2.2-0.5
	c-4.3-0.9-8.6-1-12.8-0.8C188.1,76.5,187.7,76.1,187.5,75.6z M133.4,297.8c-0.1,1.5-2.6,3.4-9.2,4.1c-11.1,1-18,0.7-20.5-1
	c-0.8-0.5-1.9-1.4-2.1-2.5c-0.2-0.9,0.1-1.9,0.3-2.9c0.8-3,1.1-4.2,1.4-5.4c0.2-0.8,0.4-1.6,0.8-3c2.1,1.5,5,2.1,9.2,2.1
	c0,0,0,0,0.1,0c7.6,0,13.3-0.3,16.7-3.1C132.3,291.9,133.5,297,133.4,297.8z M191,296.3c-0.1,1.5-2.6,3.4-9.2,4.1
	c-11.1,1-18,0.7-20.5-1c-0.8-0.5-1.9-1.4-2.1-2.5c-0.2-0.9,0.1-1.9,0.3-2.9c0.8-3.1,1-4.4,1.3-5.7c0.2-0.9,0.3-1.8,0.7-3.2
	c6.2,3.9,21.1,2.3,25.1-0.2c0.2-0.1,0.4-0.3,0.6-0.4C189.4,290,191,295.3,191,296.3z M237.2,182.7
	C237.2,182.7,237.2,182.7,237.2,182.7l-1.9,2.1c0.1,0.1,0.2,0.1,0.3,0.2c-4.7,6.1-10,10.1-14.8,13.7c-2.8,2.1-5.5,4.1-7.7,6.3
	c-1.3,0.9-2.7,1.6-4.1,2.4c-2,1-4,1.8-6,2.5c-2.1,0.7-4.2,1.3-6.3,1.6c-2.1,0.4-4.3,0.7-6.5,0.8c-0.5,0.1-1.1,0-1.6,0.1
	c-0.5,0-1.1,0-1.6,0c-1.1,0-2.2,0-3.3-0.1c-4.4-0.3-8.7-1-13.1-2c4.1,1.8,8.5,3,12.9,3.6c2.2,0.3,4.5,0.4,6.8,0.4
	c2.3,0,4.5-0.3,6.8-0.7c2.2-0.4,4.4-1,6.6-1.8c2.1-0.8,4.2-1.8,6.1-2.9c0.1-0.1,0.2-0.2,0.4-0.2c-0.9,1.3-1.6,2.7-2.1,4.3
	c-1.3,3.7-2.9,10.4-4.9,18.2c-4.7,18.9-11.9,47.6-18.2,51.5c-3.8,2.4-20.5,3.5-23.2-0.9c-5.5-8.8-9.4-31-12.6-48.9
	c-1.2-6.9-2.4-13.5-3.5-18.6c0.6-0.1,1.2-0.3,1.7-0.6c1.2-0.5,2.2-1.3,3-2.3c-1.3,0.2-2.4,0.5-3.5,0.7c-0.6,0.1-1.1,0.2-1.6,0.2
	c0,0,0,0,0,0l-2,0.1c-1,0-2-0.1-3.1-0.1c-1.2,0-2.4,0-3.7,0.2c1.1,0.6,2.3,1.1,3.4,1.4c0.7,0.2,1.5,0.4,2.3,0.5l-4.9,32.4
	c-0.2,1.3-0.4,2.7-0.6,4.3c-1.4,9.7-3.5,24.3-6.9,31.1c-1.9,3.7-6.6,4.3-16.5,4.3c0,0,0,0,0,0c-6.3,0-8.4-1.6-9.9-4.4
	c-3.2-6-6-17.3-8.5-27.2c-1.4-5.7-2.7-10.7-3.8-13.9c-0.6-1.8-1.2-3.6-1.8-5.4c-2.8-8.3-5.6-16.8-10-23c1.4,0.9,2.9,1.8,4.4,2.5
	c2,1,4.2,1.8,6.4,2.4c2.2,0.6,4.4,1,6.7,1.2c2.3,0.2,4.5,0.2,6.8,0.1c2.3-0.2,4.5-0.5,6.7-1c4.4-1,8.6-2.6,12.6-4.7
	c-4.3,1.3-8.5,2.5-12.9,3.1c-1.1,0.2-2.2,0.3-3.3,0.4c-0.5,0.1-1.1,0.1-1.6,0.1c-0.5,0-1.1,0.1-1.6,0.1c-2.2,0.1-4.3,0-6.5-0.2
	c-2.2-0.2-4.3-0.6-6.4-1.1c-2.1-0.5-4.2-1.2-6.2-2c-2.4-1-4.8-2.1-7.1-3.5c-1.6-1.8-3.5-3.4-5.5-4.6c-13.8-7.8-23.7-18.7-29.2-32.4
	c-5.7-14-5.2-27-4.4-33.4c2.2-17.7,14-39.6,26.9-49.9c5.2-4.2,16.3-9.2,22.6-10.8c2.7-0.7,5.7-1,8.9-1c14.8,0,34.2,6.3,45.7,10.6
	c7.3,2.7,15.1-0.3,20.8-2.5c9.6-3.7,24-8.3,37.9-5.5c14.3,2.8,24.1,6.3,31.9,15.3c8.4,9.7,14.1,23.6,15.8,38.2
	c1.4,11.8,0.7,29.6-10.4,47.3C237.9,181.7,237.6,182.2,237.2,182.7z M310.9,144.4c-3.2,8-11.8,16.2-18.6,19.7
	c0.8-1.6,1.6-3.2,2.3-4.9c0.8-1.9,1.6-3.8,2.2-5.8c0.6-2,1.1-4,1.2-6c-0.3,2-1.1,3.9-1.9,5.8c-0.8,1.9-1.8,3.6-2.8,5.4
	c-1,1.7-2.1,3.4-3.3,5.1c-1.1,1.7-2.3,3.3-3.5,4.9l0,0c-0.2,0.2-0.3,0.5-0.5,0.7c-2.2,3.1-5.2,7.3-13.7,11.5
	c-5.9,2.9-24.4,6.5-32.6,3.4c0.3-0.5,0.6-0.9,0.9-1.4c11.5-18.3,12.2-36.8,10.8-49.1c-1.7-15.2-7.7-29.7-16.5-39.7
	c-5.4-6.3-12.1-11.1-27-14.8c3.8-1.4,7.3-3.6,8-4l2.6-1.6l-3.1-0.3c-7.2-0.7-12.9-5.6-16.5-9.6c-2.8-3.1-5.2-6.6-7.6-10
	c-0.2-0.3-0.5-0.7-0.7-1c6.5,4.3,13.2,8.3,20.6,10.9c11.4,4,22.5,4,31.4-0.2c0.9-0.4,1.9-0.9,2.8-1.4c3.6-1.9,7.1-3.7,10.4-2.7
	c2.2,0.6,4,2.3,5.6,3.8c6.3,5.8,14.8,13.6,18.9,22c-2.6-0.1-5,0.3-7.2,1.2c-5.2,1.9-9.7,6.5-13.4,13.4c-0.5,1-1,1.9-1.5,2.7
	c-2.5,4.6-4.5,8.2-6.3,13.8c-0.8,2.4-2.1,8.4-0.7,11.3c2.8,6.1,11.7,6.5,15.9,6.5c0.4,0,0.7,0,1,0c7.4-0.1,15.9-0.6,23.6-3.9
	c-0.1,0.2-0.2,0.4-0.3,0.6c-0.3,0.6-0.6,1.2-1,1.8l-0.5,0.9c-0.2,0.3-0.4,0.6-0.6,0.9c-1.6,2.3-3.5,4.3-5.6,6.1
	c-0.6,0.4-1.1,0.8-1.7,1.3c-0.3,0.2-0.6,0.4-0.9,0.6l-0.9,0.5c-0.6,0.4-1.2,0.8-1.8,1.1l-1.9,0.9c-0.3,0.2-0.6,0.3-1,0.5l-1,0.4
	l-2,0.8c-1.4,0.4-2.7,0.8-4.1,1.2c1.4-0.3,2.8-0.5,4.2-0.9l2.1-0.6l1-0.3c0.3-0.1,0.7-0.3,1-0.4l2-0.8c0.7-0.3,1.3-0.6,2-1l1-0.5
	c0.3-0.2,0.6-0.4,0.9-0.6c0.6-0.4,1.2-0.8,1.9-1.2c2.4-1.7,4.6-3.7,6.5-6c0.2-0.3,0.5-0.6,0.7-0.9l0.7-0.9c0.5-0.6,0.8-1.2,1.2-1.9
	c0.4-0.7,0.7-1.3,1.1-2c0.2-0.3,0.3-0.7,0.5-1c0.1-0.2,0.1-0.3,0.2-0.5c7.4-4.2,14.5-12.7,13.8-22.7c0-0.6-0.1-1.2-0.2-1.8
	c1.6,1.7,3.4,4.9,4.1,10C315.5,130.6,314.8,134.6,310.9,144.4z"/>
	<g>
		<path
			class="st2"
			d="M25.3,248.6c-9.9-21.2-14.9-44.5-14.9-69.4c0-45.6,17.8-88.4,50-120.7c32.2-32.2,75.1-50,120.7-50
		c26.1,0,51.2,5.8,74.6,17.1c1.1,0.5,2.4,0.1,2.9-1c0.5-1.1,0.1-2.4-1-2.9c-23.9-11.6-49.7-17.5-76.5-17.5
		c-46.7,0-90.7,18.2-123.7,51.2s-51.2,77-51.2,123.7c0,25.5,5.1,49.5,15.3,71.2c9.9,21.2,24.8,41,44.4,59h6.4
		C51.3,290.9,35.5,270.5,25.3,248.6z"/>
		<path class="st2" d="M356,179.2c0-53-23.7-102.6-64.9-136c-0.9-0.7-2.3-0.6-3,0.3c-0.7,0.9-0.6,2.3,0.3,3
		c40.2,32.6,63.3,81,63.3,132.7c0,49.3-21.4,96.2-58.6,128.7c-0.5,0.4-0.7,1-0.7,1.6h5.4C334.8,276.2,356,228.9,356,179.2z"/>
	</g>
	<g>
		<g>
			<path class="st3" d="M35.1,339.8v-2.3h1.5v0.8h6.5l0.4-0.4v-5.3l-0.4-0.4h-6.5l-0.8-0.4l-0.4-0.4l-0.4-0.8v-6.1l0.4-0.8l0.4-0.4
			l0.8-0.4H45v2.3h-1.5v-0.8H37l-0.4,0.4v5.3l0.4,0.4h6.5l0.8,0.4l0.4,0.4l0.4,0.8v6.1l-0.4,0.8l-0.4,0.4l-0.8,0.4H35.1z"/>
			<path class="st3" d="M49.9,339.8v-1.5h0.8v-13.7h-0.8V323h2.3l3.8,7.6l3.8-7.6h2.3v1.5h-0.8v13.7h0.8v1.5h-3.1v-1.5h0.8V326
			l-3.4,6.9h-0.8l-3.4-6.9v12.2H53v1.5H49.9z"/>
			<path class="st3" d="M68.5,339.8l-0.8-0.4l-0.4-0.4l-0.4-0.8v-13.7l0.4-0.8l0.4-0.4l0.8-0.4h6.9l0.8,0.4l0.4,0.4l0.4,0.8v13.7
			l-0.4,0.8l-0.4,0.4l-0.8,0.4H68.5z M75,338.3l0.4-0.4v-13l-0.4-0.4h-6.1l-0.4,0.4v13l0.4,0.4H75z"/>
			<path class="st3" d="M81.8,339.8v-1.5h0.8v-13.7h-0.8V323h3.1v1.5h-0.8v12.2l6.1-12.2h-0.8V323h3.1v1.5h-0.8l-3.4,6.9l3.4,6.9h0.8
			v1.5h-3.1v-1.5h0.8l-2.7-5.3l-3.4,6.9H81.8z"/>
			<path class="st3" d="M97.3,339.8v-1.5h0.8v-13.7h-0.8V323h9.9v2.3h-1.5v-0.8h-6.1v6.1h5.3v1.5h-5.3v6.1h6.1v-0.8h1.5v2.3H97.3z"/>
			<path class="st3" d="M112.1,339.8v-1.5h0.8v-13.7h-0.8V323h8.4l0.8,0.4l0.4,0.4l0.4,0.8v13.7l-0.4,0.8l-0.4,0.4l-0.8,0.4H112.1z
			 M120.2,338.3l0.4-0.4v-13l-0.4-0.4h-5.7v13.7H120.2z"/>
			<path class="st3" d="M134,339.8v-1.5h0.8v-13.7H134V323h2.3l3.8,7.6l3.8-7.6h2.3v1.5h-0.8v13.7h0.8v1.5h-3.1v-1.5h0.8V326
			l-3.4,6.9h-0.8l-3.4-6.9v12.2h0.8v1.5H134z"/>
			<path class="st3" d="M151.1,339.8v-1.5h0.8v-13.7h-0.8V323h9.9v2.3h-1.5v-0.8h-6.1v6.1h5.3v1.5h-5.3v6.1h6.1v-0.8h1.5v2.3H151.1z"/>
			<path class="st3" d="M165.9,339.8v-1.5h0.8v-13.7l0.4-0.8l0.4-0.4l0.8-0.4h6.1l0.8,0.4l0.4,0.4l0.4,0.8v13.7h0.8v1.5h-3.1v-1.5
			h0.8v-6.1h-6.1v6.1h0.8v1.5H165.9z M174.3,330.6v-5.7l-0.4-0.4h-5.3l-0.4,0.4v5.7H174.3z"/>
			<path class="st3" d="M184.9,339.8v-1.5h0.8v-13.7h-2.7v0.8h-1.5V323h9.9v2.3h-1.5v-0.8h-2.7v13.7h0.8v1.5H184.9z"/>
			<path class="st3" d="M196.2,339.8v-2.3h1.5v0.8h6.5l0.4-0.4v-5.3l-0.4-0.4h-6.5l-0.8-0.4l-0.4-0.4l-0.4-0.8v-6.1l0.4-0.8l0.4-0.4
			l0.8-0.4h8.4v2.3h-1.5v-0.8h-6.5l-0.4,0.4v5.3l0.4,0.4h6.5l0.8,0.4l0.4,0.4l0.4,0.8v6.1l-0.4,0.8l-0.4,0.4l-0.8,0.4H196.2z"/>
			<path class="st3" d="M246.7,339.8v-2.3h1.5v0.8h6.5l0.4-0.4v-5.3l-0.4-0.4h-6.5l-0.8-0.4l-0.4-0.4l-0.4-0.8v-6.1l0.4-0.8l0.4-0.4
			l0.8-0.4h8.4v2.3h-1.5v-0.8h-6.5l-0.4,0.4v5.3l0.4,0.4h6.5l0.8,0.4l0.4,0.4l0.4,0.8v6.1l-0.4,0.8l-0.4,0.4l-0.8,0.4H246.7z"/>
			<path class="st3" d="M264.9,339.8v-1.5h0.8v-13.7H263v0.8h-1.5V323h9.9v2.3h-1.5v-0.8h-2.7v13.7h0.8v1.5H264.9z"/>
			<path class="st3" d="M278.6,339.8l-0.8-0.4l-0.4-0.4l-0.4-0.8v-13.7h-0.8V323h3.1v1.5h-0.8v13.4l0.4,0.4h5.3l0.4-0.4v-13.4h-0.8
			V323h3.1v1.5h-0.8v13.7l-0.4,0.8l-0.4,0.4l-0.8,0.4H278.6z"/>
			<path class="st3" d="M291.9,339.8v-1.5h0.8v-13.7h-0.8V323h9.9v2.3h-1.5v-0.8h-6.1v6.1h5.3v1.5h-5.3v6.1h0.8v1.5H291.9z"/>
			<path class="st3" d="M306.7,339.8v-1.5h0.8v-13.7h-0.8V323h9.9v2.3h-1.5v-0.8h-6.1v6.1h5.3v1.5h-5.3v6.1h0.8v1.5H306.7z"/>
		</g>
		<g>
			<path
				class="st4"
				d="M219.1,337.3l-0.2-0.7l0.4-0.1l-1.7-6.6l0.1-0.4l0.1-0.2l0.3-0.3l3-0.8l0.4,0.1l0.2,0.1l0.3,0.3l1.7,6.7
			l0.4-0.1l0.2,0.7l-1.5,0.4l-0.2-0.7l0.4-0.1l-0.8-3l-3,0.8l0.8,3l0.4-0.1l0.2,0.7L219.1,337.3z M222,331.8l-0.7-2.8l-0.2-0.1
			l-2.6,0.7l-0.1,0.2l0.7,2.8L222,331.8z"/>
			<path class="st4" d="M226.7,335.4l-0.2-0.7l0.4-0.1l-1.7-6.6l-0.4,0.1l-0.2-0.7l1.1-0.3l5,5.8l-1.5-5.9l-0.4,0.1l-0.2-0.7l1.5-0.4
			l0.2,0.7l-0.4,0.1l1.9,7.4l-0.7,0.2l-5-5.8l1.5,5.9l0.4-0.1l0.2,0.7L226.7,335.4z"/>
			<path class="st4" d="M234.6,333.3l-0.2-0.7l0.4-0.1l-1.7-6.6l-0.4,0.1l-0.2-0.7l4.1-1.1l0.4,0.1l0.2,0.1l0.3,0.3l1.7,6.6l-0.1,0.4
			l-0.1,0.2l-0.3,0.3L234.6,333.3z M238.2,331.6l0.1-0.2l-1.6-6.3l-0.2-0.1l-2.8,0.7l1.7,6.6L238.2,331.6z"/>
		</g>
		<g>
			<rect x="218.6" y="336.1" transform="matrix(0.968 -0.2508 0.2508 0.968 -77.08 68.3212)" class="st5" width="21.9" height="1"/>
		</g>
		<g>
			<rect x="215.6" y="324" transform="matrix(0.968 -0.2508 0.2508 0.968 -74.1435 67.1796)" class="st5" width="21.9" height="1"/>
		</g>
	</g>
	<g>
		<g>
			<path
				class="st5"
				d="M86.3,152.6c0-0.5-0.3-0.8-0.8-0.8h-4c-0.5,0-0.8,0.3-0.8,0.8v9c0,0.5,0.3,0.8,0.8,0.8h4
			c0.5,0,0.8-0.3,0.8-0.8V159h-3.2v-3h6.6v6.1c0,1.9-1.4,3.3-3.4,3.3h-5.7c-2,0-3.4-1.3-3.4-3.3v-10.2c0-1.9,1.4-3.3,3.4-3.3h5.7
			c2,0,3.4,1.3,3.4,3.3v2.2h-3.5V152.6z"/>
			<path class="st5" d="M107.6,162.2c0,1.9-1.4,3.3-3.4,3.3h-5.5c-2,0-3.4-1.3-3.4-3.3v-13.4h3.5v12.8c0,0.5,0.3,0.8,0.8,0.8h3.8
			c0.5,0,0.8-0.3,0.8-0.8v-12.8h3.5V162.2z"/>
			<path
				class="st5"
				d="M121.6,152.6c0-0.5-0.3-0.8-0.8-0.8h-3.5c-0.5,0-0.8,0.3-0.8,0.8v1.6c0,0.5,0.3,0.7,0.8,0.8l4.5,0.9
			c1.9,0.4,3.5,1.5,3.5,3.3v3c0,1.9-1.4,3.3-3.4,3.3h-5.4c-2,0-3.4-1.3-3.4-3.3V160h3.4v1.5c0,0.5,0.3,0.8,0.8,0.8h3.7
			c0.5,0,0.8-0.3,0.8-0.8v-1.8c0-0.5-0.3-0.7-0.8-0.8l-4.5-0.9c-1.9-0.4-3.5-1.5-3.5-3.3v-2.8c0-1.9,1.4-3.3,3.4-3.3h5.1
			c2,0,3.4,1.3,3.4,3.3v1.9h-3.4V152.6z"/>
			<path class="st5" d="M137.4,151.8v13.5h-3.5v-13.5h-4.5v-3.1h12.5v3.1H137.4z"/>
			<path class="st5" d="M147.3,165.3h-3.6l5.6-16.6h4l5.6,16.6h-3.7l-1.1-3.7h-5.6L147.3,165.3z M149.4,158.5h3.7l-1.8-6.1
			L149.4,158.5z"/>
			<path class="st5" d="M169.7,165.3h-4l-5.3-16.6h3.9l3.3,12.6l3.4-12.6h3.8L169.7,165.3z"/>
			<path
				class="st5"
				d="M188.2,148.6c2,0,3.4,1.3,3.4,3.3v10.2c0,1.9-1.4,3.3-3.4,3.3h-5.8c-2,0-3.4-1.3-3.4-3.3v-10.2
			c0-1.9,1.4-3.3,3.4-3.3H188.2z M188.2,152.6c0-0.5-0.3-0.8-0.8-0.8h-4.1c-0.5,0-0.8,0.3-0.8,0.8v9c0,0.5,0.3,0.8,0.8,0.8h4.1
			c0.5,0,0.8-0.3,0.8-0.8V152.6z"/>
			<path
				class="st5"
				d="M205.5,152.6c0-0.5-0.3-0.8-0.8-0.8h-3.5c-0.5,0-0.8,0.3-0.8,0.8v1.6c0,0.5,0.3,0.7,0.8,0.8l4.5,0.9
			c1.9,0.4,3.5,1.5,3.5,3.3v3c0,1.9-1.4,3.3-3.4,3.3h-5.4c-2,0-3.4-1.3-3.4-3.3V160h3.4v1.5c0,0.5,0.3,0.8,0.8,0.8h3.7
			c0.5,0,0.8-0.3,0.8-0.8v-1.8c0-0.5-0.3-0.7-0.8-0.8l-4.5-0.9c-1.9-0.4-3.5-1.5-3.5-3.3v-2.8c0-1.9,1.4-3.3,3.4-3.3h5.1
			c2,0,3.4,1.3,3.4,3.3v1.9h-3.4V152.6z"/>
		</g>
		<g>
			<path class="st5" d="M208.6,135.5c1-0.4,1.9-0.7,2.9-1c1,0.1,1.9,0,2.9,0h5.8h1v1v5.4c0,0.9,0,1.8,0,2.7c-0.3,0.9-0.6,1.8-0.9,2.7
			c-0.4-0.9-0.7-1.8-0.9-2.7c-0.1-0.9,0-1.8,0-2.7v-5.4l1,1h-5.8c-1,0-1.9,0-2.9,0C210.6,136.2,209.6,135.9,208.6,135.5z"/>
		</g>
		<g>
			<path class="st5" d="M208.6,180.4c1-0.4,1.9-0.7,2.9-1c1,0.1,1.9,0,2.9,0h5.8l-1,1V175c0-0.9,0-1.8,0-2.7c0.3-0.9,0.6-1.8,0.9-2.7
			c0.4,0.9,0.7,1.8,0.9,2.7c0.1,0.9,0,1.8,0,2.7v5.4v1h-1h-5.8c-1,0-1.9,0-2.9,0C210.6,181.1,209.6,180.8,208.6,180.4z"/>
		</g>
		<g>
			<path class="st5" d="M78.1,135.6c-1,0.4-1.9,0.7-2.9,1c-1-0.1-1.9,0-2.9,0h-5.8l1-1v5.4c0,0.9,0,1.8,0,2.7
			c-0.3,0.9-0.6,1.8-0.9,2.7c-0.4-0.9-0.7-1.8-0.9-2.7c-0.1-0.9,0-1.8,0-2.7v-5.4v-1h1h5.8c1,0,1.9,0,2.9,0
			C76.1,134.9,77.1,135.2,78.1,135.6z"/>
		</g>
		<g>
			<path class="st5" d="M78.1,180.5c-1,0.4-1.9,0.7-2.9,1c-1-0.1-1.9,0-2.9,0h-5.8h-1v-1V175c0-0.9,0-1.8,0-2.7
			c0.3-0.9,0.6-1.8,0.9-2.7c0.4,0.9,0.7,1.8,0.9,2.7c0.1,0.9,0,1.8,0,2.7v5.4l-1-1h5.8c1,0,1.9,0,2.9,0
			C76.1,179.7,77.1,180.1,78.1,180.5z"/>
		</g>
		<g>
			<path
				class="st5"
				d="M188.5,135.6c4.5-0.1,9-0.3,13.4-0.4l0.1,0l0.1,0.1l6.9,4.4l-0.3-0.1l7.5-0.2l0.8,0l0,0.8l0.1,3.5
			c0,1.2,0.1,2.3,0.1,3.5l-0.2-0.6c0.7,0.9,1.4,1.9,2.1,2.8l2.1,2.8l0.2,0.3v0.3v10.3v0.3l-0.2,0.3l-4.2,5.7l0.2-0.6v7v1h-1h-7.5
			l0.5-0.2l-6.8,4.6l-0.2,0.2l-0.3,0l-116.9,0l-0.3,0l-0.2-0.2l-6.8-4.6l0.5,0.2h-7.5h-1v-1v-7l0.2,0.6l-4.2-5.7l-0.2-0.3v-0.3
			v-10.3v-0.3l0.2-0.3l2.1-2.8c0.7-0.9,1.4-1.9,2.1-2.8l-0.2,0.6l0.1-3.5l0.1-3.5l0-0.8l0.8,0l7.5,0.2l-0.3,0.1l6.9-4.4l0.1-0.1
			l0.1,0c4.5,0.1,9,0.3,13.4,0.4c-4.5,0.1-9,0.3-13.4,0.4l0.2-0.1l-6.7,4.8l-0.1,0.1l-0.2,0l-7.5,0.2l0.8-0.8l0.1,3.5l0.1,3.5l0,0.3
			l-0.2,0.3c-0.7,1-1.4,1.9-2.1,2.8l-2.1,2.8l0.2-0.6v10.3l-0.2-0.6l4.2,5.7l0.2,0.3v0.3v7l-1-1h7.5h0.3l0.2,0.2l6.8,4.6l-0.5-0.2
			l116.9,0l-0.5,0.2l6.8-4.6l0.2-0.2h0.3h7.5l-1,1v-7v-0.3l0.2-0.3l4.2-5.7l-0.2,0.6v-10.3l0.2,0.6l-2.1-2.8
			c-0.7-0.9-1.4-1.9-2.1-2.8l-0.2-0.3l0-0.3c0-1.2,0-2.3,0.1-3.5l0.1-3.5l0.8,0.8l-7.5-0.2l-0.2,0l-0.1-0.1l-6.7-4.8l0.2,0.1
			C197.5,135.9,193,135.7,188.5,135.6z"/>
		</g>
		<g>
			<path
				class="st5"
				d="M119.4,131.3c0-0.4-0.2-0.6-0.6-0.6H116c-0.4,0-0.6,0.2-0.6,0.6v6.7c0,0.4,0.2,0.6,0.6,0.6h2.9
			c0.4,0,0.6-0.2,0.6-0.6v-1.9h-2.3v-2.3h4.8v4.6c0,1.5-1,2.5-2.5,2.5h-4.1c-1.5,0-2.5-1-2.5-2.5v-7.7c0-1.5,1-2.5,2.5-2.5h4.1
			c1.5,0,2.5,1,2.5,2.5v1.6h-2.5V131.3z"/>
			<path
				class="st5"
				d="M132.4,128.4c1.5,0,2.5,1,2.5,2.5v7.7c0,1.5-1,2.5-2.5,2.5h-4.2c-1.5,0-2.5-1-2.5-2.5v-7.7
			c0-1.5,1-2.5,2.5-2.5H132.4z M132.4,131.3c0-0.4-0.2-0.6-0.6-0.6h-2.9c-0.4,0-0.6,0.2-0.6,0.6v6.7c0,0.4,0.2,0.6,0.6,0.6h2.9
			c0.4,0,0.6-0.2,0.6-0.6V131.3z"/>
			<path class="st5" d="M145.6,140.9l-2-4.6h-2v4.6h-2.5v-12.5h6.4c1.5,0,2.5,1,2.5,2.5v2.9c0,1.2-0.7,2.1-1.7,2.4l2.1,4.7H145.6z
			 M145.4,131.4c0-0.4-0.2-0.6-0.6-0.6h-3.3v3.2h3.3c0.4,0,0.6-0.2,0.6-0.6V131.4z"/>
			<path class="st5" d="M158.6,128.4c1.5,0,2.5,1,2.5,2.5v7.6c0,1.5-1,2.5-2.5,2.5h-6.5v-12.5H158.6z M158,138.6
			c0.4,0,0.6-0.2,0.6-0.6v-6.6c0-0.4-0.2-0.6-0.6-0.6h-3.4v7.8H158z"/>
			<path
				class="st5"
				d="M171.7,128.4c1.5,0,2.5,1,2.5,2.5v7.7c0,1.5-1,2.5-2.5,2.5h-4.2c-1.5,0-2.5-1-2.5-2.5v-7.7
			c0-1.5,1-2.5,2.5-2.5H171.7z M171.6,131.3c0-0.4-0.2-0.6-0.6-0.6h-2.9c-0.4,0-0.6,0.2-0.6,0.6v6.7c0,0.4,0.2,0.6,0.6,0.6h2.9
			c0.4,0,0.6-0.2,0.6-0.6V131.3z"/>
		</g>
		<g>
			<polygon class="st5" points="226.5,185.8 61.4,185.8 61.4,129.6 107.6,129.6 107.6,131.7 63.5,131.7 63.5,183.7 224.4,183.7
			224.4,131.7 179,131.7 179,129.6 226.5,129.6 		"/>
		</g>
	</g>
</svg>
